<?xml version="1.0" encoding="UTF-8"?>
<svg id="Layer_1" xmlns="http://www.w3.org/2000/svg" version="1.1" viewBox="0 0 1920 1080">
  <!-- Generator: Adobe Illustrator 29.0.0, SVG Export Plug-In . SVG Version: 2.1.0 Build 186)  -->
  <defs>
    <style>
      .st0 {
        fill: #f2e49c;
      }

      .st1 {
        fill: #cdf5f9;
      }

      .st2 {
        fill: #bfbdb2;
      }

      .st3 {
        fill: #af0404;
      }

      .st4 {
        fill: #827d6b;
      }

      .st5 {
        fill: #020000;
      }

      .st6 {
        fill: #fbb03b;
      }
    </style>
  </defs>
  <g>
    <path class="st2" d="M600.2,774"/>
    <path class="st0" d="M426.4,1001.3v-22l27.9-.4s8.4-.8,8.6,10.1c.2,10.9-7.6,12.3-7.6,12.3h-28.9Z"/>
    <rect class="st1" x="757" y="840.2" width="662.5" height="63.2"/>
    <path d="M585.4,1079.9c3-42.9,26.1-68.4,82.4-65.3,60.2-1.8,91,21.2,96.7,65.3h-179Z"/>
    <rect x="771.1" y="840.2" width="12.1" height="63.2"/>
    <rect x="911.1" y="840.2" width="12.1" height="63.2"/>
    <rect x="1038" y="840.2" width="12.1" height="63.2"/>
    <rect x="1143.8" y="840.2" width="12.1" height="63.2"/>
    <rect x="1249.5" y="840.2" width="12.1" height="63.2"/>
    <rect x="1337.2" y="840.2" width="12.1" height="63.2"/>
    <polygon class="st1" points="764.4 841.2 554.2 840.2 551.1 951.4 702.1 945.3 765.1 904.5 764.4 841.2"/>
    <path d="M578.7,926.4c.1-.1.2-.2.4-.4,0,0-.3,0-.6,0-4-4.4-7.9-8.9-11.5-13.6-.1-.2-1.3,0-1.5,0s-1.4.2-1.5,0c3.7,4.8,7.7,9.4,11.8,13.9-6.8,6.4-13.5,13-20.1,19.7l.5-58.6v-1s-4-2.9-4-2.9l-1-.7-.5,68.4,5-.4v-1.7c7-7.3,14.2-14.4,21.5-21.4,4,4.2,8.1,8.3,12.4,12.2.2.2,1.3,0,1.5,0,.3,0,1.3-.2,1.5,0-4.8-4.4-9.4-9-13.8-13.8Z"/>
    <path class="st4" d="M760.1,1049.3c4.6,9.8,7.3,20,8.3,30.6h379.2c-1.8-11.6.3-23.1,6.3-34.7l-393.8,4.1Z"/>
    <path class="st4" d="M1359.3,1038.1c3.7,13.9,5.5,27.9,5.3,41.8h197.4v-25.6c-1-8.8-7.3-13.1-18.4-13.1l-184.3-3.1Z"/>
    <path class="st2" d="M691.1,1030.9h-41.6c-11.9.3-22.1,5.3-30.1,17-5,10.5-8.6,21.2-10.7,32h16.5c-1.1-8,1.5-16.2,6.4-24.5,3-7.2,9.4-11.3,18.3-13.2h41.2v-11.3Z"/>
    <polygon class="st2" points="717.6 1054.5 717.6 1079.9 733.4 1079.9 733.4 1053.8 717.6 1054.5"/>
    <path d="M1149.9,1079.9c3.6-50.7,31-80.9,97.6-77.2,75-2.9,114.2,23.7,114.6,77.2h-212.3Z"/>
    <path class="st2" d="M1266.2,1030.9h-41.6c-11.9.3-22.1,5.3-30.1,17-5,10.5-8.6,21.2-10.7,32h16.5c-1.1-8,1.5-16.2,6.4-24.5,3-7.2,9.4-11.3,18.3-13.2h41.2v-11.3Z"/>
    <polygon class="st2" points="1299.8 1054.5 1299.8 1079.9 1315.5 1079.9 1315.5 1053.8 1299.8 1054.5"/>
    <path class="st6" d="M582.8,1049.6h-156.3s0-46.6,0-46.6h25.7s13.8-1.6,13.8-13.8-16.1-12.2-16.1-12.2h-23.3c2.2-15.2,13.2-24.4,34.4-26.5l241.7-3.1,68.5-43.9h644.6v-63.1h-862c0-19.4,10.2-28.7,31.7-27.2l908.8-4.5c16.9-.4,24.7,8.6,22.9,27.3v202.2s-157.9,0-157.9,0c-24.7-26.7-56.9-42.6-103.3-38.4-53.1-4-86.1,11.3-102.2,43.1l-393.8,2.4c-19.7-22-47.4-33.8-83.6-34.7-44.2-5-74.1,9.7-93.7,39Z"/>
    <polygon points="553.8 840.3 551.1 882.9 556.1 886.5 556.1 840.3 553.8 840.3"/>
    <rect x="682.5" y="969.8" width="17.1" height="9.2"/>
    <rect x="771.1" y="939.2" width="646.6" height="12.2"/>
    <rect x="771.1" y="973.8" width="646.6" height="12.2"/>
    <ellipse class="st3" cx="1495.8" cy="974.3" rx="7.6" ry="7.7"/>
    <path class="st3" d="M1492.9,998.5c-2.6-1.7-3.3-5.2-1.6-7.8s5.1-3.3,7.7-1.6c2.6,1.7,3.3,5.2,1.6,7.8-1.7,2.6-5.1,3.3-7.7,1.6Z"/>
    <path class="st4" d="M584.9,1052.4c-1.7,11.1-1.4,20,0,27.5h-194.5s0-15.3,0-15.3c.5-8.5,6.1-13.1,19.1-12.3h175.4Z"/>
  </g>
  <g>
    <path class="st5" d="M967.3,903.6c.5-13.1,5.6-20.1,15.5-20.9,13.2.5,19.3,7.5,18.3,20.9"/>
    <ellipse class="st5" cx="984.3" cy="868.9" rx="10.6" ry="13.8"/>
    <path class="st5" d="M1202.4,904.1c.4-13.8,4.7-21.2,12.8-22,10.9.6,16,7.9,15.2,22"/>
    <ellipse class="st5" cx="1216.5" cy="867.6" rx="8.8" ry="14.5"/>
    <path class="st5" d="M1178.5,903.7c.3-10.7,3.5-16.3,9.5-17,8.1.4,11.8,6.1,11.2,17"/>
    <ellipse class="st5" cx="1189" cy="875.5" rx="6.5" ry="11.2"/>
    <path class="st5" d="M601.6,948.8c.8-23.1,9.9-35.4,27.3-36.8,23.3.9,34,13.2,32.3,36.8"/>
    <ellipse class="st5" cx="631.6" cy="887.9" rx="18.7" ry="24.2"/>
  </g>
</svg>