<?xml version="1.0" encoding="UTF-8"?>
<svg id="Layer_1" xmlns="http://www.w3.org/2000/svg" xmlns:xlink="http://www.w3.org/1999/xlink" version="1.1" viewBox="0 0 1920 1080">
  <!-- Generator: Adobe Illustrator 29.0.0, SVG Export Plug-In . SVG Version: 2.1.0 Build 186)  -->
  <defs>
    <style>
      .st0 {
        fill: #440613;
      }

      .st1 {
        fill: #f2e49c;
      }

      .st2 {
        fill: #a3ca8b;
      }

      .st3 {
        opacity: .6;
      }

      .st3, .st4, .st5, .st6 {
        isolation: isolate;
      }

      .st7 {
        fill: #feff8c;
      }

      .st8 {
        fill: #feffd1;
      }

      .st4, .st6 {
        font-family: Krungthep, Krungthep;
        font-size: 166px;
      }

      .st9 {
        fill: #8e0404;
      }

      .st10 {
        fill: #cdf5f9;
      }

      .st11 {
        fill: #ba4c2a;
      }

      .st12 {
        fill: #3a7c37;
      }

      .st13 {
        fill: #e3a153;
      }

      .st14 {
        fill: #d1ac5b;
      }

      .st15 {
        fill: #f4c1c9;
      }

      .st6 {
        fill: #f2f2f2;
      }

      .st16 {
        fill: #000200;
      }

      .st17 {
        fill: #f3aeb6;
      }

      .st18 {
        fill: #fff;
      }

      .st19 {
        fill: #827d6b;
      }

      .st20 {
        fill: #f8c55a;
      }

      .st21 {
        fill: #3d8739;
      }

      .st22 {
        fill: #676451;
      }

      .st23 {
        fill: #fbb03b;
      }

      .st24 {
        fill: #4b9947;
      }

      .st25 {
        fill: #535145;
      }

      .st26 {
        display: none;
      }

      .st27 {
        fill: #3a2f29;
      }

      .st28 {
        fill: #dd9ea7;
      }

      .st29 {
        fill: #42933e;
      }
    </style>
  </defs>
  <g id="Layer_11" data-name="Layer_1" class="st26">
    <image class="st3" width="1622" height="742" transform="translate(249 278.5) scale(.9 .7)" xlink:href="game-over-1.png"/>
  </g>
  <g id="Layer_6">
    <path class="st18" d="M381.6,188.2h1142.5c58.1,0,105.2,53.2,105.2,118.9v491.8c0,65.6-47.1,118.9-105.2,118.9H381.6c-58.1,0-105.2-53.2-105.2-118.9v-491.8c0-65.6,47.1-118.9,105.2-118.9Z"/>
    <path class="st9" d="M393.6,176.9h1142.5c58.1,0,105.2,53.2,105.2,118.9v491.8c0,65.6-47.1,118.9-105.2,118.9H393.6c-58.1,0-105.2-53.2-105.2-118.9v-491.8c0-65.6,47.1-118.9,105.2-118.9Z"/>
  </g>
  <g id="Bus">
    <g>
      <path class="st19" d="M688.3,667.9l-142.7-2.4c-50.1-.9-100.2-1.7-150.3-2.6-21.4,0-37.1,7.6-38,15-2.6,21.7,37.6,25.5,38,23l293,4v-37Z"/>
      <path class="st20" d="M388.3,658.9v-103.3s80,5.3,79-24.7-81-22-81-22v-5.9c-.8-9.4,6.4-15.5,20-19.1h279.1l2.5,178.8-299.6-3.8h0Z"/>
      <rect x="589.3" y="525.9" width="17" height="9"/>
      <path class="st1" d="M386.3,514.5l2.1,35.4s71.1,9.6,71.5-17.7-73.6-17.7-73.6-17.7Z"/>
      <polygon class="st20" points="469.3 477.9 463.8 258.4 677.2 258.4 685.2 477.9 469.3 477.9"/>
      <path d="M475.4,471.9l-4-190c.4-10.1,5.7-16.1,16-18l185.8-1,5,210-202.8-1h0Z"/>
      <path class="st10" d="M481.3,469.9h195.1l-6.1-205h-172.1c-15.7-.4-25.8,4.4-25.9,20l4.6,185h4.4Z"/>
      <path class="st23" d="M520.3,255.9"/>
      <polygon points="476.3 465.8 521.4 429.6 494.9 404.1 501.7 404.1 542.3 441.9 539.2 444.5 524.6 432.4 476.9 469.9 476.3 465.8"/>
      <rect x="539.2" y="444.5" width="4.2" height="10.6"/>
      <path class="st19" d="M540.3,671.9"/>
      <path class="st19" d="M1321.4,705l247.9,4s12.9-4.8,19-10c14.7-12.5-7.4-36.4-15.3-34h-251.6v40h0Z"/>
      <polygon class="st20" points="1321.4 660.4 1321.4 262.6 1544.5 264.9 1544.5 660.4 1321.4 660.4"/>
      <circle class="st11" cx="1488.8" cy="576.4" r="21.5"/>
      <ellipse class="st11" cx="1488.4" cy="622.9" rx="13.2" ry="12.9" transform="translate(151.7 1526.5) rotate(-56.8)"/>
    </g>
  </g>
  <g id="Mos_osv.">
    <path class="st23" d="M347.3,1147.9"/>
    <path class="st23" d="M172.3,1018.9"/>
    <g>
      <path class="st2" d="M501.3,257.9c2.9-2.5,6.3-2.9,7-3,1.8-.2,1.4.2,4,0,1.7-.1,3.1-.4,5,0,1.1.2,1.7.5,2,1,.4.6.4,1.5,0,2-.5.7-1.5.3-2,1-.4.5,0,1,0,2,0,1.5-.6,1.7-1,4-.2,1.4-.4,2.2,0,3,.5,1.1,1.3,1,2,2,.2.3.5.9,0,5-.4,3.5-.8,4.4-1,5-.4.9-.6,1-1,2-.5,1.2-.5,1.6-1,4-.6,2.9-.9,3.4-1,5,0,.6,0,1.2,0,2,.2,2.5,1,3,1,5,0,1.2-.3,1.6,0,2,.5.7,1.7.1,3,1,.4.2.4.4,1,1,2.1,2.3,2.4,2,3,3,.9,1.6,0,2.3,1,4,.7,1.2,1.3.9,2,2,1.1,1.7,0,2.7,1,5,.6,1.4,1.6,2.5,2,3,.9,1,1.8,1.7,2,3,0,.1,0,.4,0,1,0,2.6-.2,2.7,0,3,.6,1,2.3-.1,4,1,1.1.8,2.1,2.5,2,4,0,.5-.2.7,0,1,.5.9,2.3.1,3,1,.4.5,0,1,0,2,0,1.9.9,3.9,2,5,1.4,1.4,2.5.9,3,2,.3.6,0,1.1-1,4-.9,2.7-.7,2.4-1,3-.8,1.5-1.2,1.6-3,4-.9,1.3-.6,1-2,3-1.3,1.9-1.6,2.1-2,3-.6,1.3-.5,1.7-1,2-.9.5-1.9-.6-3,0-.5.3-.4.6-1,1-.8.5-2.1.6-3,0-.8-.6-.9-1.6-1-2-.2-1.5.6-1.9,1-4,0-.5,0-.4,0-4,0-1.8,0-2.7,0-3,.1-2.7.5-3.6,0-4-.8-.6-2.3.6-3,0-.4-.4-.2-1.2,0-2-2.9.6-3.8.4-4,0-.3-.5.7-1.2,1-3,.1-.9,0-1,0-2,0-2.9,1.6-4.5,1-5-.5-.4-1.5.5-2,0-.6-.5.5-2,0-4-.3-1-.6-.9-1-2-.5-1.4-.1-2.3,0-4,.1-1.7.4-5.2-1-6-1-.6-2.1.6-3,0-1.3-.9-.5-3.9-1-4-.5-.1-.9,2.5-3,4-.5.4-2.3,1.5-4,1-1.4-.4-1.4-1.5-3-2-1.2-.4-1.6,0-3,0-.9,0-1.7-.3-6-3-2.9-1.8-3.4-2.3-4-2-1.4.6-.3,4.1-2,5-1.2.6-2.4-.8-4,0-.5.2-.5.5-2,2-1.2,1.2-1.3,1.3-2,2-2.7,2.8-2.4,4.5-4,5-1.3.5-1.8-.5-3,0-1.8.8-1.2,3-3,4-.9.5-1.2,0-4,0-3.6,0-4.3.7-5,0-.9-.8-.1-2.1,0-7,0-2.2-.1-1.9,0-3,.2-1.7.5-5.5,3-7,1.3-.8,2-.1,3-1,1.7-1.4.5-3.5,2-5,1.6-1.6,4.3-.5,5-2,.5-1.1-.6-2.1,0-3,.5-.8,1.4-.2,3-1,1.1-.5,1.8-1.4,3-3,.9-1.2,1-1.6,1-2,0-.9-.6-1.3-1-2-1.2-2-.4-5.4,1-6,1-.5,1.6.8,4,1,.8,0,3,.2,4-1,.9-1.1.1-2.4,0-7,0-.9,0-1.6,0-2,.5-.5,1.1-1.2,2-2,1.3-1.3,2.6-2.7,4-4,2.8-2.8,3.7-3.5,4-5,0-.4,0-.9,0-2-.1-3.3-.8-4.7,0-6,.2-.3.5-.5,1-1Z"/>
      <path class="st2" d="M646.3,255.9h-.4c-5.7,0-7.2-.2-9.6,0-2.3.2-3.4.3-4,1-1.1,1.3-.1,3,0,6,.2,5-2.2,5.4-2,10,.2,3.4,1.5,3.3,2,8,.3,2.4,0,2.3,0,7,0,6.2.7,6.5,0,8-1.4,3-4.1,2.8-5,6-.3,1,0,.7,0,4,0,3.5-.5,5.7-1,8-.5,2.6-.8,2.8-1,3-2,1.6-5.8-1.4-7,0-.4.4,0,.7,0,4,0,1,0,2,0,3v8c-.3,3.8-2.5,6.9-4,9-.7.9-1.4,1.8-1.4,1.8-.2.3-1,1.1-2,2.2-.6.6-1.2,1.1-1.4,1.4-1.9,1.7-3.2,2.5-3.2,2.6,0,.1,6.3-1.9,11-7,1.1-1.2,2.1-2.5,4-3,1.7-.4,4-.1,5,0,1.7.2,2.5.5,3,0,.6-.7-.4-1.8,0-3,.6-1.6,3-1.2,6-3,.8-.5,3.7-2.2,4-5,0-1,0-2.5-1-3-1.1-.6-2.3.6-3,0-.6-.4-.2-1.4,0-4,.1-1.9,0-3.6,0-4-.1-2.6-.5-3.1,0-4,.5-.9,1.1-.7,2-2,.4-.6.6-1,1-2,.5-1.3.8-2,1-3,.4-2.3-.7-3.2,0-4,.5-.7,1.2-.1,3-1,.7-.3,1.7-.9,2-2,0-.1.1-.5,0-1-.3-1-1.3-1-2-2-.8-1.1-.7-3,0-4,.4-.6.7-.4,1-1,.5-.8.2-1.6,0-3,0-.7-.2-2,0-3,.7-3,4.6-4.8,5-5,1.3-.6,2.7-.9,3-2,0-.3,0-.5,0-1,0-.7-.4-3.4-2-4-.8-.3-1.2.3-2,0-1.4-.5-2.5-3-2-5,.4-1.7,1.7-1.9,2-4,.1-.8,0-1.5,0-2,0-.9-.2-2-1-3-.3-.5-.7-.8-1-1"/>
      <path class="st27" d="M627.3,388.9c-.1.1,0,.3,0,1.5v1.5c0,1.3,0,2.7,0,4,0,1.5.2,1.7,0,2-.7,1-3,1-4,0s-.3-1.5-1-2c-.8-.6-1.4.1-4,0-1,0-1.3-.1-2,0-.4,0-1.3.3-2,1-.8.8-.9,1.8-1,3-.1,1-.2,1.5,0,1.8,0,0,0,.1,0,.2-.1.3-1.2,0-2,0-1.7.2-2.7,2.4-3,3-.9,1.8-1,4-1,4,0,0,2.5.6,3,2,.1.3.2,1,0,1.7,0,.2,0,.3,0,.3-.3,1,.7,2.1,1,3,.7,2-1.8,3.6-1,5,.4.6,1.2.8,2,1,1.5.3,1.8-.3,3,0,1.5.4,1.4,1.5,3,2,1.3.4,1.7-.4,3,0,1.8.5,2.6,2.2,3,2,.2-.2,0-1,0-1,0,0,.5,1.6,1,3,.5,1.6.7,1.9,1,2,.7.2,1.5-.5,2-1,.7-.8.7-1.5,1-3,.6-2.7.9-4,2-5,.8-.7,1.8-1,2-2,0-.3,0-.6,0-1-.2-1.8-1.3-2.6-1-3,.3-.5,2.2.7,3,0,.3-.3.4-.8,0-3-.5-2.9-1.2-4.9-1-5,.2,0,.9,1.1,1,1,.2-.1-1.3-1.9-1-4,.2-1.6,1.3-2,1-3,0-.3-.2-.4-2-2,0,0,.3-4.6-1-5-.4-.1-.7.2-1,0-.4-.3,0-1.1,0-2-.2-2-3.4-3.5-4-3Z"/>
      <path class="st27" d="M649.3,368.9c-1.1.3-1.6,5.4,0,10,1,3.1,2.3,3.8,2,6-.3,2.2-2,5-2,5h0s2.2,1.2,3,3c.4.9.3,2.3,0,5-.2,2-.4,2.6,0,3,.9.9,3.1-.8,4,0,0,0,.8.7-2,8h0s-1.5,4.1-1,8c.4,2.8,1.4,2.7,2,6,.4,2.1.2,3.7,0,6-.3,3.1-.9,5.3-2,9-.5,1.8-.8,2.7-1,3-2.3,3-6.8.3-11,3-3.3,2.2-4.1,6.3-5,6-.8-.3-.2-3.8-1-4-.8-.2-1.4,3.1-4,4-1,.3-1.8.2-3,0-1.3-.2-2.4-.6-5-2-4-2.1-4.3-2.6-6-3-1-.2-1.3-.1-4,0h-12c-1.3,0-2.7.1-4,0-1.7-.2-2.7-.5-3,0-.5.7,1.4,2,1,3-.4.9-2.9,1-8,1-2.3,0-3.4,0-4,0-1.5,0-2-.1-3,0-1.3.2-2.2.6-3,1-1.7.8-2.6,1.2-3,2-.9,1.8.5,4.8,2,5,1.2.2,2-1.4,3-1,.7.3,1,1.3,1,2,0,1.6-1.3,2.2-1,3,.4,1.1,4.1,1.4,5,0,.7-1.1-.4-2.7,0-3,.4-.2,1.3,1.3,3,2,1.2.5,2.1.2,4,0,1.2-.1,4-.4,7,0,2.3.3,3.2.9,6,1,1,0,.8,0,2,0,1,0,3.7.2,7,1,2.3.6,2.5.9,4,1,1.1,0,3,0,3,0h0c3.6.9,5,1,5,1,.3,0,.3,0,2,0,2.3,0,2.4,0,5,0,5.8,0,5.5,0,6,0,2.7.5,3.2,1.4,5,1,.3,0,2.3-.5,3-2,.8-1.7-.6-3.6,0-4,.3-.2.8.4,2,1,.6.3,2.2,1.1,4,1,.6,0,2-.1,3-1,0,0,.9-.8,2-5h0s2.3-2.3,3-5c0-.3,0-.1,0-5v-7c0-3.2,0-3.4,0-4,.2-1.9,1.3-3,2-4,1.9-3-.3-5.4-1-13-.2-1.7,0-5.1,0-12,0-5,.2-5.3,0-7-.4-4-1.2-4.6-2-10-.7-4.4-.3-4.5-1-6-1.6-3.2-3.6-2.7-5-6-.7-1.7-.6-2.9-2-5-.6-1-1.4-2.1-2-2Z"/>
      <path class="st27" d="M586.3,440.9"/>
      <path class="st27" d="M613.3,397.9"/>
      <path class="st13" d="M388.3,563.9c11.3-1.1,20.1-.1,26,1,7.5,1.4,9.5,2.9,20,5,6.5,1.3,7.1,1,21,3,19.7,2.8,19.8,3.5,28,4,6.2.4,3.8-.2,22,0,12.4.1,14.6.4,21,0,5.5-.3,9.6-.9,18-2,8.7-1.2,13.1-1.8,19-3,3.3-.7,6.7-1.3,10-2,7.6-1.7,10.6-2.6,12-1,1.1,1.2,1,3.5,0,5-2.1,3.2-8,2.2-14,2-9.6-.3-7,1.8-27,4-12.2,1.3-12.4.5-24,2-8.9,1.2-7.4,1.5-18,3-11.9,1.7-19.8,2.1-20,4,0,.8,1.2,1.5,2,2,2.8,1.6,5.8,1.1,7,1,4.1-.5,4.3,1.3,14,4,6.4,1.8,11.5,2.4,16,3,5.1.7,9.2.9,11,1,1.3,0,6.5.3,14,0,7-.3,6.7-.7,14-1,5.1-.2,8.9-.4,14,0,5.6.4,5.7.9,10,1,2.6,0,3.2-.2,12-1,6.5-.6,5.1-.4,11-1,4-.4,8-.3,12-1,3.3-.6,6.1-1.3,7,0,.5.7.3,1.8,0,3,0,.2-.6,2.5-2,4-2,2.1-5.2,1.9-8,2-5.9.2-5.2,1.6-14,3-5.7.9-6.4.4-16,1-12,.8-11.6,1.6-21,2-4.2.2-8.4.1-17,0-4.3,0-8.7.3-13,0-5.8-.4-10.6-1.3-12,1,0,0-.1.2-1,4h0c-.4,1.7-1.1,3.9-3,5-3.1,1.8-5.6-1.6-10,0-2.9,1-3.1,3-7,4-1.6.4-2.9.4-3,1-.1.7,1.5.9,4,3,1.2,1,1.8,1.8,3,2,1,.2,1.2-.2,2,0,1.6.4,2.7,2.3,3,4,0,.3.5,2.9-1,4-1.7,1.2-3.9-1.2-9-2-3.8-.6-3.9.5-8,0-2.5-.3-4.7-1.2-9-3-6.3-2.6-5.6-2.9-9-4-.9-.3-5.1-1.6-11-2-3.3-.2-3,.2-6,0-3.9-.2-6-.9-14-3-4.3-1.1-2.3-.5-8-2-12.7-3.3-11.4-3.2-15-4,0,0-9.5-2-21-2h-12"/>
      <path class="st13" d="M538.3,497.9c-2.1,0-4.7,1.1-6,3-1.7,2.5-.4,5.1-2,6-1.4.8-3.1-.8-4,0-.7.7.3,1.9,0,4-.3,2.2-2,4.5-4,5-1.4.3-2-.5-3,0-1.3.7-1.9,3.4-1,5,1,1.7,2.8,1.1,4,3,.8,1.3.2,2,1,3,1.3,1.6,4.1,1.2,6,1,2.4-.3,6-.7,7-3,.9-2-1-3.9,0-5,1.1-1.2,3.5.6,7,0,4.3-.8,7.6-4.7,7-6-.5-1.1-3.8-.2-4-1-.1-.5,1.6-1.5,3-2,2.3-.8,3.2-.2,4-1,1.1-1.1.8-3.4,0-5-1.1-2.1-2.5-1.7-4-4-1.3-2.1-1-3.8-2-4-.9-.2-1.3,1.4-3,2-2.1.8-3.2-1-6-1Z"/>
      <path class="st14" d="M637.3,659.9c-1.6-2,.2-6,2-10,2.1-4.7,3.6-6.2,3-7-.6-.8-3.4.2-9,2-3.3,1.1-4.2,1.5-5,1-1.7-1.1-1.7-5.2,0-8,1.4-2.5,3-2.2,7-5,2.9-2.1,7.3-5.1,9-10,1.2-3.5.2-5.3,2-7,1.9-1.8,3.8-.7,7-2,4.8-2,7-7,7-7,0,0-10.3,11.8-8,15,1,1.3,4.2,1.2,6,0,1.5-1,1.3-2.3,3-5,1.8-3,4.5-5.3,5-5,.2.2,0,.8-2,6-1.7,4.3-1.7,4.5-2,5-1.8,3.2-3.4,4-3,5,.4,1.1,2.9,1.5,5,1,4.1-.9,3.9-4.4,9-7,2.5-1.3,4.6-1.4,5-3,.4-1.4-.7-3.1-1-3s.1,1.9,1,10c.4,3.7.5,4.7,0,6-.8,2.2-1.8,2.1-3,5-.6,1.3-1.5,3.5-1,6,.2.8.3.7,1,3,.5,1.6.8,2.7,1,4,.2,1.4.4,2.7,0,4-.7,2.5-3.3,4.7-6,5-3.3.4-3.9-2.5-8-3-1.9-.2-4.3.5-9,2-3.3,1-5.9,2.1-7,1-.6-.6-.2-1.5-1-2-1-.7-2.9-.1-4,1-1.3,1.3-1,2.8-2,3-.7.2-1.5-.4-2-1Z"/>
      <path class="st2" d="M538.3,664.9c-.4,3.8-1.8,5.8-3,7-2,1.9-3.7,1.7-6,4-1.8,1.8-2.5,3.7-3,5-2,5.2-1.5,11.6,0,12,1.2.3,3.8-2.8,4-6,.1-1.9-.7-3.4,0-6,.3-1,.8-2,1-2,.6.1-1.2,5.5,1,11,1.2,2.8,2.6,3.8,3,4,2,1.1,5,1.3,6,0,1.4-1.9-1.3-7-4-10-1.7-1.9-3.3-2.9-3-4,.3-1,2.1-1.5,4-2,2.7-.7,3.5-.3,4-1,.8-1.2-1.3-2.9-1-6,0,0,.1-1.4,1-3,3.7-6.9,39.1,5,42,4,0,0,.7-.3,1,0,.3.3,0,.7,0,2,0,.7.1.8,0,1-.4.8-1.7.4-2,1-.2.5.5.9,1,2,.3.8.2,1.9,0,4-.2,2-.4,2.5,0,3,.5.7,1.1.4,2,1,.7.4,1,1,2,4,1.3,3.8,1.4,4.5,1,5-.6.8-1.3.2-2,1-.9,1-.1,2.5,0,7,0,.6,0,.8,0,1-.2,2.4-1.4,3.3-1,4,.5,1,3.4,1,4,0,.3-.5-.2-.8-1-3-.5-1.5-.9-2.6-1-4,0-.8,0-.9,0-2,0-1.4-.2-1.7,0-2,.5-.7,2.1-.4,3,0,.3.1,1.7.8,2,2,.2,1-.4,1.5,0,2,.4.5,1.5.5,2,0,.4-.4.2-1.1,0-2,0-.3-.3-1.2-1-2-.2-.3-.3-.4-1-1-1.2-1.2-1.9-1.8-2-2-.5-1,.2-1.4,0-3-.2-1.8-1.4-1.7-2-4-.4-1.5-.3-2.8-1-3-.3,0-.5.2-1,0-.7-.2-1-1-1-1-.2-.4,0-.6,0-2,0-.5,0-.4,0-1,0-1.5.2-1.6,0-2-.3-.6-1-.6-1-1,0-.3.5-.5,1-1,.5-.5.7-1,1-2,.6-1.8.4-2.7,1-3,.2,0,.2,0,1,0,1.3,0,1.8-.3,2,0,.2.3-.2.8,0,1s1,0,1,0h0c-.2-1.5-.1-2,0-2,.2,0,.5,1,1,1,.4,0,.9-.5,1-1,.1-.5-.1-.6,0-1,.2-.5.8-.5,1-1,0-.2,0-.3,0-1,0-.4,0-.8,0-1"/>
      <path class="st14" d="M441.3,551.9c2,3.1,1.9,6.8,0,9-1.1,1.2-3,.6-4,2-.7,1-.3,2.2,0,4,.5,3.1.5,6.6,0,9-1,4.4-3.8,5.5-3,7,.9,1.6,5.3,1.9,8,0,2-1.4,1.7-3.2,4-5,1.7-1.4,3.5-1.7,5-2,6-1.3,14.1-4.7,14-7-.1-2-6.5-2.1-7-5-.4-2.3,3.3-3.4,3-6-.3-2.2-3.2-2.5-5-6-.8-1.5-1-3-1-4"/>
      <polygon class="st14" points="422.2 555.2 421.3 556.9 421.3 560.3 422.2 561.5 422.2 564.5 424 567.4 424 569.9 423.1 574.5 422.7 577.3 421.3 577.9 420.6 577.9 419.1 577.9 419.3 576.9 420.3 576.9 420.3 575.9 420.3 573.9 421.6 573.3 422.3 570.9 423.1 569.1 423.1 567.5 421.6 566.5 421.3 564.9 420.3 562.9 419.3 560.9 419.1 559.3 419.1 558.3 417.3 557.9 417.3 559.4 416.3 559.9 415.3 560.9 413.3 560.9 411.3 561.9 409.9 563.4 409.3 564.9 406.3 564.9 404.3 563.9 404.3 562.6 406.3 561.9 408.3 560.9 408.3 558.9 410.3 558.9 412.3 559.9 413.3 557.9 412.3 557.9 413.3 556.9 415.3 556.9 415.3 555.7 422.2 555.2"/>
      <path class="st27" d="M608.3,551.9c1.7-1.2-1.9-6.2,0-9,1.6-2.2,5-.5,7-3,1.5-1.9,1.5-5.3,0-7-1.4-1.6-3.3-.9-5-3-.3-.4-1.3-1.7-1-3,.2-.8.8-1.2,2-2,2.9-1.9,4.4-2.9,5-3,1.9-.3,4.8,0,6,2,.8,1.4.5,3,0,5-.9,3.8-2.5,4.7-2,6,.9,2.3,7.1,2,8,2,4.8-.3,6.4-2.1,8-1,1.8,1.3,2.1,5.5,0,8-1.6,1.9-4.2,2.3-6,2-.5,0-2-.7-5-2-2.1-.9-2.4-1.1-3-1-1.8.2-3.6,2-4,4-.4,2.1,1.1,3,3,8,1,2.8,1.6,4.2,1,5-1,1.4-3.7,0-10,0-3.8,0-4.2.6-6,0-4.1-1.3-5.8-5.5-6-6-1.1-2.7-1.1-6-.2-6.8,0,0,.2-.1.2-.2.9-.3,3,1.6,4,3,.6.8,1,1.6,2,2,.2,0,1.3.5,2,0Z"/>
      <polygon class="st2" points="1321.7 424.9 1331.6 367.9 1334.6 374.9 1339.6 378.9 1343.6 380.9 1344.6 386.9 1346.6 392.9 1347.6 401.9 1347.6 408.6 1345.6 413.9 1343.6 418.9 1340.6 428.9 1341.6 433.9 1345.1 433.9 1348.6 428.9 1350.6 423.9 1350.6 417.9 1352.6 413.9 1353.6 410.9 1355.6 405.9 1355.6 400.9 1354.6 394.9 1350.6 393.9 1349.6 390.9 1351.6 388.9 1352.6 385.9 1350.6 379.9 1347.6 374.9 1345.6 371.9 1342.6 365.9 1338.7 359.5 1336.6 357.9 1332.6 353.9 1332.6 349.9 1332.6 345.9 1328.6 342.9 1328.6 334.9 1329.6 331.9 1331.6 324.9 1330.6 318.9 1330.6 313.9 1328.6 308.9 1328.6 301.9 1330.6 297.9 1330.6 290.9 1328.6 288.9 1328.6 282.9 1329.6 276.9 1330.6 270.9 1333.6 266.9 1340 266.9 1345.9 266.9 1353.6 267.9 1358.6 267.9 1367.6 267.9 1372.6 267.9 1380.6 267.9 1383.6 267.9 1383.6 270.8 1383.6 275.2 1382.6 277.9 1382.6 281.9 1381.6 285.9 1381.6 289.9 1382.6 292.9 1384.6 295.9 1386.6 297.9 1389.6 300.9 1392.6 302.9 1393.6 305.9 1396.6 308.9 1397.6 311.9 1398.6 314.9 1399.6 315.9 1400.6 315.9 1399.6 314.9 1398.6 313.9 1398.6 312.9 1398.6 311.9 1397.6 310.9 1397.6 309.9 1397.6 308.9 1396.6 307.9 1395.6 306.9 1394.6 305.9 1393.6 304.9 1393.6 303.9 1393.6 302.9 1392.6 301.9 1391.6 300.9 1390.6 299.9 1389.6 298.9 1388.6 297.9 1386.6 296.9 1385.6 295.9 1384.6 294.9 1383.6 293.9 1382.6 291.9 1382.6 289.9 1382.6 288.9 1381.6 286.9 1382.6 285.9 1382.6 284.9 1382.6 282.9 1383.6 281.9 1383.6 280.9 1383.6 278.9 1383.6 277.9 1383.6 276.9 1383.6 275.9 1384.6 274.9 1384.6 273.9 1384.6 271.9 1384.6 270.9 1385.6 268.9 1386.6 268.9 1388.6 267.9 1390.6 267.9 1393.6 267.9 1395 266.9 1395.6 266.9 1398.6 267.9 1399.6 268.9 1400.6 269.9 1404.6 269.9 1406.6 269.9 1409.6 269.9 1410.6 270.9 1412.6 270.9 1413.6 270.9 1415.6 271.9 1416.6 272.9 1417.6 273.9 1419.6 274.9 1419.6 276.9 1420.6 278.9 1421.6 279.9 1421.6 280.9 1421.6 281.9 1422.6 282.9 1422.6 284.9 1424.6 285.9 1425.6 288.9 1428.6 289.9 1429.6 292.9 1431.6 295.9 1435.6 298.9 1437.6 300.9 1439.6 302.9 1444.6 305.9 1445.6 309.9 1446.6 312.9 1448.6 313.9 1454.6 316.9 1454.6 319.8 1457.6 322.9 1460.6 324.9 1465.6 325.9 1470.6 329.9 1474.6 330.9 1479.6 331.9 1485.6 333.9 1489.6 333.9 1489.6 336.5 1489.6 338.9 1490.6 341.9 1491.6 341.9 1493.6 342.9 1495.6 342.9 1498.6 341.9 1499.6 339.9 1500.6 334.9 1499.6 330.9 1499.6 327.9 1499.6 323.9 1497.6 320.9 1495.6 318.9 1492.6 317.9 1492.6 314.9 1489.6 313.9 1487.6 311.9 1483.6 311.9 1479.6 311.9 1479.6 310.9 1479.6 308.9 1477.6 306.9 1473.6 306.9 1473.6 303.9 1473.6 301.9 1471.6 300.9 1467.6 300.9 1468.6 297.9 1470.6 297.9 1470.6 294.9 1468.6 293.9 1469.6 291.9 1471.6 290.9 1473.6 291.9 1474.6 294.9 1477.6 295.9 1478.6 295.9 1480.6 296.9 1484.6 296.9 1488.6 296.9 1491.6 297.9 1493.6 297.9 1500.6 297.9 1502.6 297.9 1504.6 298.9 1505.6 299.9 1507.6 299.9 1510.6 300.9 1512.6 301.9 1516.6 304.9 1516.6 307.9 1518.6 311.9 1521.6 312.9 1521.6 316.9 1522.6 319.9 1522.6 323.2 1531.6 331.9 1533.6 328.9 1536.6 331.9 1536.6 335.5 1539.6 336.9 1542.6 334.9 1544.6 335.9 1544.8 321.1 1543.6 317.9 1541.6 313.9 1541.6 310.9 1541.6 307.9 1543.6 304.9 1543.6 300.9 1544.6 298.9 1544.8 297.1 1544.8 292.3 1544.8 285 1539.6 283.9 1537.6 280.9 1535.6 276.9 1536.6 271.9 1535.6 268.9 1533.6 266.9 1531.6 265.9 1530.8 264.8 1489.4 264.8 1482.6 267.9 1479.6 269.9 1477.6 271.9 1473.6 271.9 1471.6 270.9 1469.6 271.9 1467.6 275.9 1465.6 279.9 1462.6 282.9 1461.6 281.9 1461.6 276.9 1463.6 275.9 1465.6 273.9 1467.6 272.9 1467.6 269.9 1465.6 266.9 1463.6 265.9 1458.6 265.9 1456.6 264 1336.6 262.8 1335.6 263.9 1332.6 264.9 1330.6 264.9 1328.6 263.9 1328.6 264.9 1328.6 266.9 1326.6 267.9 1325.6 267.9 1323.6 267.9 1323.6 269.9 1322.6 270.9 1321.7 271.5 1321.7 424.9"/>
      <polyline class="st27" points="1449.3 457.9 1449.3 455.9 1452.3 453.9 1454.3 453.9 1453.9 451.5 1455.3 449.9 1456.3 447.9 1457.3 445.9 1459.3 444.9 1462.3 442.9 1462.3 440.1 1463.3 438.9 1466.3 436.9 1466.3 435.4 1468.3 433.9 1468.3 430.9 1468.3 429.9 1470.3 425.9 1470.3 424.6 1471.3 424.9 1473.9 423.9 1476.8 423.9 1477.3 425.9 1476.3 426.9 1475.3 427.9 1477.3 430.4 1475.3 430.9 1475.3 433.9 1475.3 435.9 1477.3 435.8 1477.3 437.7 1475.3 439.9 1475.3 440.9 1473.3 443.9 1471.3 443.9 1471.3 448.9 1470.3 449.9 1468.3 449.9 1469.3 448.9 1469.3 447.9 1469.3 446.9 1470.3 445.9 1470.3 444.9 1470.3 443.9 1470.3 442.9 1471.3 442.9 1472.3 442.9 1473.3 441.9 1474.3 439.9 1473.3 438.9 1474.3 437.9 1475.3 437.9 1476.3 436.9 1475.3 435.9 1474.3 435.9 1473.3 434.9 1474.3 432.9 1474.3 431.9 1474.3 430.9 1475.3 429.9 1474.3 428.9 1474.3 428.9 1474.3 427.9 1475.3 425.9 1475.3 425.9 1476.3 424.9 1474.3 424.9 1472.3 424.9 1471.3 425.9 1470.3 426.9 1469.3 428.9 1470.3 429.9 1469.3 430.9 1469.3 430.9 1469.3 431.9 1469.3 432.9 1468.3 433.9 1468.3 434.9 1467.3 435.9 1466.3 436.9 1466.3 437.9 1465.3 438.9 1464.3 438.9 1463.3 440.8 1463.3 442.9 1462.3 443.9 1461.3 443.9 1460.3 444.9 1459.3 445.9 1458.3 445.9 1457.3 446.9 1456.3 449.9 1455.3 450.9 1454.7 451.5 1454.3 452.9 1454.3 453.9 1455.3 453.9 1454.3 454.9 1453.3 454.9 1451.3 454.9 1450.3 455.9 1449.3 457.9"/>
      <polygon class="st27" points="1386.3 515.9 1394.3 512.9 1400.3 509.9 1408.3 506.9 1415.3 504.9 1415.3 497.4 1422.3 495.9 1436 495.9 1438.3 492.9 1444.3 487.9 1453.3 484.9 1460.3 486.9 1468.3 481.9 1471.8 476.9 1479.3 473.9 1490.3 475.9 1496.3 471.9 1502.3 463.9 1505.3 458.9 1510.3 457.9 1512.3 459.9 1512.3 468 1507.3 470.9 1507.3 475.9 1503.3 481.9 1495.3 484.9 1489.3 488.9 1488.3 488.9 1488.3 486.9 1490.3 485.9 1493.3 484.9 1494.3 482.9 1495.3 482.9 1497.3 482.9 1500.3 481.9 1501.3 479.9 1503.3 479.9 1504.3 477.9 1505.3 475.9 1506.3 472.9 1506.3 471.9 1506.3 470.9 1506.3 468.9 1508.3 468.9 1510.3 467.9 1511.3 465.9 1510.3 463.9 1511.3 461.9 1511.3 459.9 1509.3 458.9 1507.3 459.9 1505.3 460.9 1504.3 462.9 1503.3 465.9 1501.3 467.9 1499.3 469.9 1497.3 472.9 1496.3 474.9 1494.3 474.9 1492.3 476.9 1490.1 476.9 1487.3 476.9 1485.3 475.9 1484 477.2 1482.3 476.9 1481.3 475.9 1479.3 475.9 1477.3 475.9 1475.3 476.9 1473.3 477.9 1472.3 478.9 1471.3 479.9 1471.3 482.9 1469.3 482.9 1467.3 483.9 1466.3 484.9 1463.3 486.9 1460.3 487.9 1457.3 487.9 1455.3 486.9 1453.3 485.9 1451.3 487.9 1448.3 487.9 1445.3 488.9 1443.3 489.9 1442.3 491.9 1439.3 492.9 1438.3 494.9 1438.3 495.9 1437.3 496.9 1435.3 496.9 1433.3 496.9 1432.3 497.9 1429.3 497.9 1428.3 496.9 1425.3 496.9 1423.3 497.9 1421.3 497.9 1420.3 497.9 1417.3 497.9 1416.3 498.9 1416.3 499.9 1416.3 502.9 1417.3 502.9 1416.3 503.9 1416.3 504.9 1417.3 505.9 1415.3 505.9 1413.3 505.9 1412.3 505.9 1407.3 508.9 1404.3 508.9 1400.3 510.9 1397.3 512.9 1394.3 513.9 1390.3 514.9 1386.3 515.9"/>
      <path class="st13" d="M1331.5,596.9c-1-1-1.7-14.2,4-18,5-4.8,7.6-9.3,0-12.4,10.7-4.5,23.2-3.7,37,.4,0,0-10,40.5-7,40.8s10-13.8,10-13.8l-1-11-8-3s33-10,32-5,10-7,10-7c0,0,13-1,15,2s-5,22-5,12-9,15-14,10,13,30,4,20-21-6-27,2-4-5.5-4-5.5l-9,7.5h-4.4s-9.6-7-9.6-11-15,1-15,1c0,0,5-5,3-8s-7-1-7-1c0,0-3,1-4,0Z"/>
      <polygon class="st25" points="1342.1 664.6 1341.6 667.6 1338.6 671.6 1341.6 677.6 1346.6 678.6 1346.6 684.5 1346.6 687.3 1358.3 687.3 1363.6 677.6 1369.6 683.6 1368.6 693.6 1373.6 695.6 1379.6 691.6 1383.6 686.6 1390.6 688.6 1391.6 692.6 1403.6 693.6 1414.6 689.6 1413.6 680.6 1422.6 680.6 1427.6 687.6 1448.3 682.3 1441.6 675.6 1444.6 668.6 1450.9 664.6 1478.6 664.6 1491.6 671.6 1490.6 677.6 1491.6 688.3 1498.6 690.6 1502.6 685.6 1508.6 682.6 1514.6 685.6 1518.6 685.6 1518.6 677.8 1508.6 674.6 1502.6 673.6 1501.6 668.6 1499.6 664.6 1342.1 664.6"/>
      <path class="st13" d="M1411.7,340.8c3,0,6.7,3,8.6,8.3,2.4,6.9.6,14.2,2.8,16.6,2,2.2,4.4-2.3,5.7,0,1,1.9-.4,5.3,0,11.1.5,6.1,2.8,12.6,5.7,13.9,2,.9,2.9-1.5,4.3,0,1.9,2.1,2.8,9.4,1.4,13.9-1.3,4.6-4,3-5.7,8.3-1.2,3.7-.3,5.6-1.4,8.3-1.8,4.3-5.8,3.4-8.6,2.8-3.4-.8-8.5-2-10-8.3-1.3-5.7,1.4-10.7,0-13.9-1.5-3.4-5,1.7-10,0-6.1-2.1-10.8-13.1-10-16.6.7-3,5.5-.7,5.7-2.8.2-1.5-2.2-4.1-4.3-5.5-3.2-2.2-4.5-.5-5.7-2.8-1.5-3-1.1-9.5,0-13.9,1.5-5.8,3.6-4.7,5.7-11.1,1.9-5.8,1.5-10.5,2.8-11.1,1.3-.6,1.9,3.8,4.3,5.5,3,2.1,4.5-2.9,8.6-2.8h0Z"/>
      <path class="st14" d="M1377.3,394.4c2.6-.6,6.4-4,10.2-7.3,4.4-3.9,5.8-5.6,6.8-5.8,1-.2.7,1.6.2,5.2-.3,2.1-.6,2.8.2,2.8,1.6,0,6-2.6,8.6-5.1,2.3-2.2,1.6-2.7,3.6-6.3,1.4-2.6,3.6-6.5,8.4-10.4,3.5-2.8,5.6-3.5,7-5.4,1.4-2-.3-2.1.3-4.4.9-3.4,5.8-7.6,5.7-7.6,0,0-10,12.1-14.1,13.1-1.7.4-2.4-1-1.6-2.6.7-1.3,2.1-2,4.6-4.5,2.7-2.7,4.6-5.4,4.1-5.4-.2,0-.8.5-5.9,4.7-4.2,3.5-4.4,3.7-4.9,4.1-3,2.8-3.4,4.1-4.6,4.5-1.3.5-2.3-.3-2.4-1.5-.1-2.4,3.7-4.5,5.2-8.4.7-1.9.3-2.9,1.9-4.1,1.4-1.1,3.5-1.7,3.5-1.5,0,.2-2.1,1.1-11,6-4.1,2.2-5.1,2.8-6.5,3.9-2.2,1.8-1.8,2.1-4.6,4.5-1.3,1.1-3.4,2.9-6.2,4.3-1,.5-.8.3-3.5,1.5-1.9.8-3.1,1.4-4.6,2.1-1.6.8-3,1.6-4.3,2.6-2.5,1.9-4.2,4.5-3.8,5.8.5,1.7,3.7,0,5.3,1.6.8.7.6,2.2.2,5.2-.2,2.1-.8,4,.8,3.7.9-.1,1.7-.9,2.4-.9s.9,1.2,0,2.4c-1,1.4-2.7,2.2-2.7,2.8,0,.4.8.4,1.6.2h0Z"/>
    </g>
  </g>
  <g id="Tekst">
    <g class="st5">
      <text class="st4" transform="translate(704.3 424.2) scale(1.2 1)"><tspan x="0" y="0">GAME</tspan></text>
      <text class="st4" transform="translate(731.4 623.4) scale(1.2 1)"><tspan x="0" y="0" xml:space="preserve">   VER</tspan></text>
    </g>
    <g class="st5">
      <text class="st6" transform="translate(707.3 419.2) scale(1.2 1)"><tspan x="0" y="0">GAME</tspan></text>
      <text class="st6" transform="translate(734.4 618.4) scale(1.2 1)"><tspan x="0" y="0" xml:space="preserve">   VER</tspan></text>
    </g>
    <g>
      <path class="st29" d="M721.7,527.5c-13.2,71.7,17.6,94.7,63.2,101.1,51.6,3.1,79.7-20,86.3-66.9-12.5-3.3-20.9-12.3-25.3-26.3-14.9-7.5-24-20.2-21.7-40.7-44.8-19.4-84.2-4.6-102.6,32.8h0Z"/>
      <path class="st29" d="M860.9,596.9c12.6,4.3,26.6-1.7,28.2-7.9s-6-18.6-16.6-23.2c-1.8,7.3-4.6,15-8,23-1.1,2.7-2.3,5.4-3.6,8.1h0Z"/>
      <path class="st12" d="M871.3,570.6c4.3,6.3,4.2,12.6,0,19-2.5,1.2-4.9,1.1-7.2,0l7.2-19Z"/>
      <path class="st12" d="M883.2,568.8"/>
      <path class="st12" d="M886.2,567.1"/>
      <path class="st29" d="M720,527.5c-13.1.4-25,11.1-24.9,17.5,0,6.4,10.4,15.6,21.8,16.3-.1-7.6.6-16,1.8-24.8.4-3,.9-6,1.3-9h0Z"/>
      <path class="st12" d="M716.8,556.3c-5.7-4.4-7.2-10.5-4.8-18.1,2.1-2,4.4-2.8,6.8-2.5l-2,20.6h0Z"/>
      <ellipse class="st7" cx="764.2" cy="546.9" rx="16.4" ry="18.4"/>
      <ellipse class="st7" cx="820.7" cy="560.9" rx="16.4" ry="18.4"/>
      <ellipse cx="763.4" cy="546.9" rx="5.2" ry="6.2"/>
      <ellipse cx="820" cy="562.7" rx="5.2" ry="6.2"/>
      <path class="st0" d="M757.5,576.7l52.1,8.8c6.1,1.8,9.6,7,10.2,15.8.9,6.8-3.4,11.3-11.8,14l-56.6-7.5c-7.1-3.1-11.4-8.3-10.2-17.8,2.2-8.6,7.4-13.3,16.3-13.3"/>
      <polygon class="st8" points="767.6 578.4 767.1 589.9 777.6 591.7 777.6 580.1 767.6 578.4"/>
      <polygon class="st8" points="793.3 582.8 791 598.7 801.4 600.4 802.9 584.4 793.3 582.8"/>
      <polygon class="st8" points="771.2 610.5 771.6 600.4 777.6 602.6 777.6 611.4 771.2 610.5"/>
      <path class="st8" d="M774.4,605.9"/>
      <path class="st17" d="M870.3,560.1c-5.5-2.3-11-5.3-15.4-10.1-4-4.4-6.8-10.3-7.2-16.8,0,0-.5,0-.9,0,.3,0,.7-.1,1,0-10.7-3.6-19.1-13.9-21.7-26.7-.7-3.7-1-7.6-.7-11.4,0,0-.2,0-.5,0h0c3.4-1.3,6.9-1.1,10.4-.6,2.9.4,6,.7,8.6,2.4,4.8,3.2,5.6,10.6,4.1,16.4-1,4-2.9,7.6-4.7,11.1.1-.2,1.3.3,1.5,0,2.9-5.5,6-11.8,5.3-18.4,5.5,2.2,10.8,5.9,13.5,12.2,1.4,3.2,1.9,6.8,1.3,10.3-.6,3.8-2.3,7.2-4,10.6.1-.2,1.4.3,1.5,0,.8-1.5,1.5-3.1,2.2-4.7,1.7.8,3.3,1.7,4.7,3,1.8,1.7,2.8,4.1,3.1,6.8.7,5.5-.1,11.2-2.1,16.2h0Z"/>
      <path class="st16" d="M797.8,501.4c0-1.8,0-3.5,0-5.3,0,0-3,0-3,0,0,1.6,0,3.2,0,4.8-1.2,0-2.5,0-3.7,0-2.2,0-4.5.2-6.7.4,0-2.6,0-5.3.1-7.9,0,0-3,0-3,0,0,2.8,0,5.5-.1,8.3-.8,0-1.5.2-2.3.3-3.7.6-7.3,1.5-10.8,2.8-.5-2.2-1-4.5-1.5-6.7,0-.3-2.9.3-3,0,.6,2.6,1.2,5.2,1.8,7.9-3.8,1.7-7.4,4-10.5,7.1.6-.6,2.4.6,3,0,2.4-2.4,5.1-4.3,7.9-5.8.7,3,1.3,5.9,2,8.8,0,.3,2.9-.3,3,0-.8-3.4-1.5-6.8-2.3-10.2,2.7-1.2,5.4-2.1,8.2-2.8,1.5-.4,3.1-.7,4.6-.9,0,3.2,0,6.5-.1,9.7,0,0,3,0,3,0,0-3.4,0-6.8.1-10.2.9-.1,1.8-.2,2.8-.3,2.6-.2,5.2-.6,7.7.1,0,4.4-.2,8.7-.6,13.1,0,0,3,.2,3,0,.3-3.8.5-7.7.6-11.5.7.4,2.2-.6,2.9,0-.9-.7-1.8-1.2-2.8-1.5h0Z"/>
      <path class="st24" d="M719.6,571.9c-1.3-49.7,22-78.4,70.7-85.6-26.6-.3-50.8,8-68.5,41.2-2.9,16.1-4.1,31.2-2.2,44.4Z"/>
      <path class="st21" d="M763.4,623.9c60.2-3.2,100.5-20,96.3-67.6l11.6,5.5c-3.8,28.4-14.7,41.9-26.7,52.5-13.8,10.3-29.5,14.1-46.3,14.4-11,.7-22.8-1.4-35-4.8h0Z"/>
      <path class="st21" d="M838.9,531.1c2,6.2,6.1,10.4,11.1,13.8-1.9-4-3.5-7.6-4-9.5-2.1-.9-4.6-2.5-7.1-4.3h0Z"/>
      <path class="st21" d="M820.3,493.1c-1.4,10.6,3.2,21.1,11.8,31.7-3.1-3.9-6-8.2-7.3-15.4-.9-3.9-1-8.9-.5-14.7l-4-1.7h0Z"/>
      <path class="st28" d="M864.6,534.2c8.9,3.6,10.1,12.8,5.7,25.9-3-1.2-5.9-2.7-8.7-4.5-2.5-1.6-4.8-3.4-6.7-5.6-2-2.4-3.8-4.9-4.9-7.5-1.4-3.2-2.2-6.3-2.3-9.3l-1.8-.8-3.3-1.7-2.8-1.8c-5.8-4.4-9.5-10.2-12-16.6,4.2,5.2,9.6,8.6,16.7,9.5l-.9,1.9v.3s.3,0,.3,0h.5c0,.1.2.1.2.1h.1s0,0,0,0l.2-.5,1.2-2.4v-.2c.5,10.2,6.3,14,17.4,12l-2.2,4.9-.5.9h1.5l1.1-2.3.4-.8.3-.6.4-1h0Z"/>
      <path class="st15" d="M845.6,519.5c4-18.7-2.6-26.9-20.2-24.5,8.4-2.2,15.6-1.4,20.8,4.1,4,5.9,2.3,13-.7,20.3h0Z"/>
      <path class="st15" d="M850.2,507.5c8.8,3.4,13.4,11.1,14.4,22.5,1-5,.7-10-2.6-14.9-2.5-3.8-7.1-7.7-11.9-9.2v1.7c0,0,0,0,0,0Z"/>
    </g>
  </g>
  <g id="Skygger">
    <g>
      <path class="st22" d="M600.3,546.9v2c0,.2,0,.6,0,1,0,1.3-.2,1.6,0,2,.3.6.7.4,1,1,.3.6-.1,1,0,2,0,.2.2,1.3,1,2,.8.7,1.3.3,2,1,.5.5.5.9,1,1,.4.1.6-.1,1,0,.6.2.5.8,1,1,.5.2.9-.7,2-1,.5-.2.5,0,2,0,2,0,2.1-.2,3,0,1.1.3.9.8,2,1,.7.2.9,0,3,0h1c.8,0,.9,0,1,0,.8-.3.9-2.1,1-2,.2.2.5,1.3,0,2-.3.4-.8.6-1.4.6-.6,0-1.2,0-1.9-.1l-1.6-.2h-1.3c0-.1-1.1-.2-1.1-.2h-1.7c0,0-1.2,0-1.2,0h-1s-1.7.1-1.7.1h-.6c0,0-.8.1-.8.1-.2,0-.4,0-.6,0-.3,0-.6,0-.8-.1-.2,0-.5-.1-.7-.2l-.6-.3c-.4-.2-.7-.4-.9-.5-.4-.2-.7-.5-1-.7-.3-.3-.7-.6-.9-.8-.3-.3-.5-.6-.8-1-.3-.5-.6-.9-.8-1.3-.2-.4-.4-.8-.6-1.2-.2-.4-.3-.9-.4-1.2,0-.4-.2-.7-.2-1.1,0-.5-.2-1-.2-1.4,0-.4,0-.8,0-1.3,0-.4,0-.7.2-1,0-.2.2-.4.3-.6.1-.1.2-.2.3-.3h0Z"/>
      <path class="st22" d="M623.3,543.1s.5.2,2.8,1.2l2.1.9,1.3.5.5.2h.6c0,0,.9.1.9.1h1c0,0,1.1-.4,1.1-.4.3,0,.6-.2.8-.3.3-.2.7-.3.9-.6.3-.3.6-.5.9-.8.3-.4.6-.8.8-1.1.3-.6.5-1.2.6-1.8v-.6c0,.1-.1.3-.3.6-.5.6-.8.6-1,1-.2.4.1.5,0,1-.1.4-.4.4-1,1-.8.7-.6.8-1,1-.4.2-.6,0-2,0h-3c-2,0-6-1.8-6-1.8h0Z"/>
      <path class="st22" d="M609.2,527.6v.4s.1.3.1.3l.2.5.2.4.3.4.4.5.4.4.3.2.4.3.5.2.4.2.6.2.6.2.4.2c.2,0,.3,0,.3,0,0-.2-1-.2-2-1-.2-.1-.1-.1-1-1-.4-.4-.8-.8-1-1"/>
    </g>
  </g>
</svg>