<?xml version="1.0" encoding="UTF-8"?>
<svg id="Layer_1" xmlns="http://www.w3.org/2000/svg" xmlns:xlink="http://www.w3.org/1999/xlink" version="1.1" viewBox="0 0 1920 1080">
  <!-- Generator: Adobe Illustrator 29.0.0, SVG Export Plug-In . SVG Version: 2.1.0 Build 186)  -->
  <defs>
    <style>
      .st0 {
        fill: #ce9b63;
      }

      .st1 {
        fill: #f2e49c;
      }

      .st2 {
        fill: #e0ac69;
      }

      .st3 {
        fill: #cdf5f9;
      }

      .st4 {
        fill: #009245;
      }

      .st5 {
        fill: #ba4c2a;
      }

      .st6, .st7, .st8 {
        isolation: isolate;
      }

      .st7, .st8 {
        font-family: Krungthep, Krungthep;
        font-size: 136.3px;
      }

      .st9 {
        fill: #020202;
      }

      .st10 {
        fill: #020100;
      }

      .st11 {
        fill: #fff;
      }

      .st12 {
        fill: #827d6b;
      }

      .st8 {
        fill: #f2f2f2;
      }

      .st13 {
        fill: #f8c55a;
      }

      .st14 {
        fill: #a82a09;
      }

      .st15 {
        fill: #fbb03b;
      }

      .st16 {
        fill: #4c0d0d;
      }

      .st17 {
        display: none;
      }

      .st18 {
        fill: #9b210a;
      }
    </style>
  </defs>
  <g>
    <g id="Layer_2">
      <path class="st11" d="M418.2,231.9h1207.6c45.9,0,83.1,45.7,83.1,102v421.9c0,56.3-37.2,102-83.1,102H418.2c-45.9,0-83.1-45.7-83.1-102v-421.9c0-56.3,37.2-102,83.1-102Z"/>
      <path class="st4" d="M426.9,222.2h1198.9c45.9,0,83.1,45.7,83.1,102v421.9c0,56.3-37.2,102-83.1,102H426.9c-45.9,0-83.1-45.7-83.1-102v-421.9c0-56.3,37.2-102,83.1-102h0Z"/>
    </g>
    <path class="st12" d="M619.1,616.2l-112.7-2c-39.6-.7-79.2-1.4-118.7-2.1-16.9,0-29.3,6.2-30,12.3-2.1,17.8,29.7,20.9,30,18.9l231.5,3.3v-30.4h0Z"/>
    <path class="st13" d="M382.1,608.8v-84.8s63.2,4.4,62.4-20.3c-.8-24.6-64-18.1-64-18.1v-4.8c-.6-7.7,5.1-12.7,15.8-15.7h220.5l2,146.8-236.7-3.1h0Z"/>
    <rect x="540.9" y="499.6" width="13.4" height="7.4"/>
    <path class="st1" d="M380.5,490.2l1.7,29.1s56.2,7.9,56.5-14.5c.3-22.4-58.1-14.5-58.1-14.5h0Z"/>
    <polygon class="st13" points="446.1 460.1 441.7 279.9 610.3 279.9 616.7 460.1 446.1 460.1"/>
    <path d="M450.9,455.2l-3.2-156c.3-8.3,4.5-13.2,12.6-14.8l146.8-.8,4,172.5-160.2-.8h0Z"/>
    <path class="st3" d="M455.6,453.6h154.1l-4.8-168.4h-136c-12.4-.3-20.4,3.6-20.5,16.4l3.6,151.9h3.5Z"/>
    <path class="st15" d="M486.4,277.8"/>
    <polygon points="451.6 450.2 487.3 420.4 466.3 399.4 471.7 399.4 503.8 430.6 501.3 432.7 489.8 422.7 452.1 453.6 451.6 450.2"/>
    <path class="st12" d="M502.2,619.5"/>
    <path class="st12" d="M1470.8,631l195.8,3.3s10.2-3.9,15-8.2c11.6-10.3-5.8-29.9-12.1-27.9h-198.8v32.9h0Z"/>
    <polygon class="st13" points="1470.8 594.3 1470.8 267.7 1647.1 269.5 1647.1 594.3 1470.8 594.3"/>
    <ellipse class="st5" cx="1603.1" cy="525.4" rx="17" ry="17.7"/>
    <path class="st5" d="M1593.8,557.2c3.2-5,9.5-6.5,14.2-3.3s6,9.9,2.8,14.9-9.5,6.5-14.2,3.3c-4.7-3.2-6-9.9-2.8-14.9Z"/>
    <g id="Layer_4">
      <g>
        <g class="st6">
          <g class="st6">
            <text class="st7" transform="translate(802.4 425.5) scale(1.2 1)"><tspan x="0" y="0">LEVEL</tspan></text>
          </g>
          <g class="st6">
            <text class="st7" transform="translate(617.2 589) scale(1.2 1)"><tspan x="0" y="0" xml:space="preserve">C   MPLETE</tspan></text>
          </g>
        </g>
        <g class="st6">
          <g class="st6">
            <text class="st8" transform="translate(804.8 423.8) scale(1.2 1)"><tspan x="0" y="0">LEVEL</tspan></text>
          </g>
          <g class="st6">
            <text class="st8" transform="translate(619.6 587.3) scale(1.2 1)"><tspan x="0" y="0" xml:space="preserve">C   MPLETE</tspan></text>
          </g>
        </g>
      </g>
    </g>
    <g id="Layer_5">
      <g>
        <g>
          <path class="st2" d="M722.1,526.6c-5.3-1.8-8,.3-8.7,5.3-.9,5.1,2.4,7.6,7.9,8.7l.9-14h0Z"/>
          <path class="st0" d="M722,528.9s-4.6-1.1-5.2,3,4.7,5.7,4.7,5.7l.6-8.6h0Z"/>
          <path d="M720.5,528.7h-1.5c-.7.2-1.4.6-2,1.1-1.1,1.3-1.2,3.3-.6,4.8h1.8c-.6-1.4-.6-3,.2-4.3.3-.6.8-1.1,1.3-1.4.2-.2.6-.2.8-.3h1.3c-.6,0-1,0-1.6,0h.2Z"/>
        </g>
        <path class="st2" d="M725.4,520c-4.7,14.1-4.2,28,1.9,41.7,4.7,11.5,14.2,20.4,26.7,27.6,5.3,2.7,10.6,4.6,16,5.7,1.6.3,8.6,1.6,17.9.6,9.6-1.1,16.5-3.9,17.9-4.6,4.8-2.1,19.2-7,26.7-22.8,5.5-11.6,8.7-22.4,8.4-31.9,0-15.2-6.5-24.5-14.3-32.7l-39-8.1-31.4.8-22,10.6-8.8,13h0v.2Z"/>
        <path class="st14" d="M724.6,520.5c.5-16.2,5.2-27.9,17.7-31.8,7.7-3,14.7-3.4,20.8-.2l-2.7,3.9.9.7c4-5.2,7.9-9.8,11.1-11.2,8.8-2.8,17.2-2.5,25.4-.4,8.1,3.1,16.2,7.9,24.2,14l11.9,10.3c5.8,9.9,6.6,14.9,7.3,19.7-4-2.1-8.8.4-11.9-4.7-1.3,4.4-.6,2.3-2.7,4.3-5.8-.3-13.4-14-15.2-12.5-1.3,1.1-2.1,4.2-4,4.8-8.1-3.9-18-13.6-19-14s-1,1.7-3.1,2.1c-2.5.9-7.6-2-13.9-4.4-6.4-2.4-11.5-.6-17.2,2.4-8.8,1.6-19.3,8.5-29.5,16.8h0Z"/>
        <path class="st9" d="M755.7,514.8c-.6-.2-1.3-.6-2-.7-1.5-.3-3.1-.2-4.6,0-2.8.3-5.9,1.2-7.2,4.1l1.8.8c1-2.2,3.2-3.4,5.5-3.9,1.2-.2,2.4-.4,3.6-.4s1.3,0,2,0c.3,0,.6,0,.9.2h0c.6.3,1.3.4,1.8.8-.6-.4-1.3-.7-1.9-.9h0Z"/>
        <ellipse class="st10" cx="752.6" cy="529.7" rx="5" ry="5.4" transform="translate(-52.2 976) rotate(-64.1)"/>
        <ellipse class="st10" cx="805.8" cy="530.1" rx="5" ry="5.4" transform="translate(-22.7 1024) rotate(-64.1)"/>
        <path class="st16" d="M760.4,556.8l36.2,2.5c-.2,9.8-5.4,14.6-15.8,14.2-12.2-.6-19.4-5.8-20.4-16.6h0Z"/>
        <path d="M774.8,572.7c.6-2.1,1.7-3.7,4.5-4.1,3.7-.9,6.8.7,9.4,3.7-1.9,1.4-8,1.6-14,.4h0Z"/>
        <path class="st9" d="M762.7,553c-.2,0-.4-.2-.6-.2s-.4-.2-.6-.2h-.2c-2.7.6-5,2.6-5.8,5.3l1.8.7c.9-2.6,3.2-4.8,5.8-5.4h-.2c0,0,0-.2,0-.2Z"/>
        <path class="st9" d="M799.1,557.6c-.6-.5-1.3-1-2.1-1.3-.9-.4-2-.8-3-1.1.6.2,1.1.5,1.6.7.2.2.6.3.8.5.6.4,1.1.8,1.6,1.3.9,1,1.6,2.2,2,3.4,0,0,.3.2.2,0,.2,0,.4.2.6.2s.4.2.6.2c0,0,.2,0,.2,0-.5-1.6-1.4-3.1-2.8-4.2h.2Z"/>
        <g>
          <polygon points="731.5 520.2 731.6 538.3 734.7 538.3 734.6 520.2 731.5 520.2"/>
          <polygon points="773 537.2 731.5 537.8 731.5 540 773.1 539.5 773 537.2"/>
          <polygon points="773.6 519.6 732.1 520.2 732.2 522.4 773.6 521.9 773.6 519.6"/>
          <polygon points="770.4 520.4 770.5 539 773.6 539 773.5 520.4 770.4 520.4"/>
          <polygon points="773.5 537.6 772 537.6 772 539.5 773.5 539.5 773.5 537.6"/>
        </g>
        <polygon points="787.8 528.2 770.8 529 770.9 530.6 787.9 529.9 787.8 528.2"/>
        <polygon points="842.5 529.1 825.5 529.4 825.5 531 842.5 530.8 842.5 529.1"/>
        <polygon class="st18" points="762.1 500.5 753.9 500 746.1 502.8 736.9 507.2 732.6 510.6 728.7 513.9 724.8 516.4 724.6 520.5 731.3 515.2 736.9 511.2 743.9 507.4 748.4 505.3 753.3 503.8 754.1 503.7 756.3 502.6 758.1 501.8 759.8 501.2 762.1 500.5"/>
        <polygon class="st18" points="762.3 500.5 765.2 499.2 770.2 500 772.8 500.6 775.3 501.9 779.1 503.2 781 503.9 782.8 504.6 784.7 504.6 786.6 503.9 787.2 503.2 788.5 502.6 789.8 503.2 791 504.6 794.2 507.2 798.5 509.9 801.7 512.5 805.4 515 807.4 516.6 808.6 515.2 810.5 513.2 811.2 511.9 812.4 511.9 813.6 513.2 816.1 515.8 818.7 517.9 820.6 519.8 823.1 521.8 825 523.8 827 523.8 828.1 522.5 828.7 520.5 829.3 519.8 830 520.5 831 521.7 833.1 523.1 835 523.1 837.5 523.8 839.5 524.5 841.1 525.6 839.8 525.1 838.9 524.8 837.5 524.7 835.7 524.5 834.8 524.4 834.3 524.4 833.8 524.2 833.1 524 832.3 523.7 831.8 523.5 831.2 523.2 830.8 522.8 830.4 522.5 829.9 521.9 829.3 521.2 829.2 520.9 829.2 521 828.7 522.6 828.5 523.1 828.4 523.6 828.3 523.7 828.2 523.9 828.1 524 827.8 524.2 827.5 524.4 827.3 524.5 827 524.8 824.4 524.5 823.7 524.2 823.1 523.8 822.6 523.4 822 523 821.4 522.5 821 522 820.3 521.3 817.9 518.8 816.8 517.5 815.7 516.3 814.9 515.3 814 514.3 812.9 513.3 812.1 512.8 811.6 512.6 811.4 512.6 811.2 512.8 811 513 810.7 513.3 810.3 514 809.7 514.8 809.3 515.6 808.7 516.5 808.3 517 807.9 517.2 807.7 517.5 807.3 517.6 806.5 517.2 805.9 516.9 805.2 516.6 804.6 516.2 800.6 513.5 799.5 512.7 797.7 511.4 795.9 510 794.7 508.9 793 507.5 791 505.9 789.4 504.5 788.7 504 788.3 503.7 788.3 503.7 788.2 503.7 788.1 503.7 787.9 503.7 787.9 503.7 787.7 503.9 787.5 504.1 787.3 504.4 787.2 504.6 786.9 504.8 786.6 505.1 786.3 505.4 786 505.5 785.8 505.6 785.4 505.7 785.3 505.7 785.1 505.8 784.8 505.9 784.5 505.9 784.2 505.9 783.9 505.9 783.5 505.9 783.1 505.8 782.8 505.7 782.4 505.6 762.3 500.5"/>
        <path class="st9" d="M808.9,516.6c-.8-.5-1.6-.9-2.5-1.2-1.8-.6-3.8-.5-5.6.2,0,0,.7.5.8.6.2.2.4.2.6.4l.2.2c1.4-.6,3-.7,4.5-.4.7.2,1.4.3,2.1.7.2,0,.6.2.8.4,0,0,.2.2.2.2.5.5,1.2.7,1.6,1.1-.8-.8-1.8-1.5-2.8-2.1h0Z"/>
        <g>
          <polygon points="784.9 519.5 785 537.7 788.1 537.7 788.1 519.5 784.9 519.5"/>
          <polygon points="826.5 536.6 785 537.2 785 539.4 826.5 538.9 826.5 536.6"/>
          <polygon points="827 518.9 785.6 519.4 785.6 521.7 827 521.2 827 518.9"/>
          <polygon points="823.9 519.8 823.9 538.3 827 538.3 827 519.7 823.9 519.8"/>
          <polygon points="827 536.9 825.4 536.9 825.4 538.8 827 538.8 827 536.9"/>
        </g>
        <g>
          <path class="st2" d="M841.4,532.4c5.8-1,8.4,1.5,8.7,6.6.4,5.2-3.2,7.2-9.1,7.6l.4-14.1h0Z"/>
          <path class="st0" d="M841.3,534.7s4.9-.4,5.2,3.6-5.5,5-5.5,5l.2-8.6h0Z"/>
          <path d="M842.9,534.8c.6,0,1.1,0,1.6.2.8.2,1.4.7,2,1.4,1.1,1.5.9,3.4.2,4.9,0,0-.9,0-1-.2-.2,0-.5,0-.7,0h-.3c.7-1.3.9-2.9.2-4.3-.3-.7-.8-1.1-1.3-1.6-.2-.2-.6-.3-.9-.4h-.5c-.2,0-.5,0-.7,0h-.3c.6,0,1.1,0,1.7.2h0l.2-.2Z"/>
        </g>
        <polygon points="734.4 526.5 722.6 524.8 722.4 526.4 734.2 528.1 734.4 526.5"/>
      </g>
    </g>
  </g>
  <g id="Layer_11" class="st17">
    <image class="st6" width="1909" height="739" transform="translate(329.3 274.7) scale(.7 .6)" xlink:href="level-complete-1.png"/>
  </g>
</svg>