<?xml version="1.0" encoding="UTF-8"?>
<svg id="Layer_1" xmlns="http://www.w3.org/2000/svg" version="1.1" viewBox="0 0 31.5 45.4">
  <!-- Generator: Adobe Illustrator 29.0.0, SVG Export Plug-In . SVG Version: 2.1.0 Build 186)  -->
  <defs>
    <style>
      .st0 {
        fill: #fff;
      }
    </style>
  </defs>
  <path d="M24.1,8.4c-.2-.3-.4-.5-.6-.8,1.4-2.1,2.8-4.2,4.3-6.3-.1.2-1,0-1.2,0s-1-.2-1.2,0c-1.1,1.5-2.1,3.1-3.2,4.7-.3-.3-.6-.7-.9-1.1-.5-.6-1-1.1-1.5-1.7-.5-.5-.9-.9-1.4-1h-2.3c.6,0,1.1.6,1.5,1.1.5.5,1,1.1,1.5,1.7.7.8,1.4,1.6,2.1,2.5-2.2,3.4-4.4,7-6.5,10.6-1.3-1.6-2.7-3.2-4.2-4.2-.3-.2-.9,0-1.2,0h-1.3c2.1,1.3,3.9,3.8,5.6,5.9-.4.7-.8,1.4-1.2,2.2-1.9,3.5-3.7,7.1-5.4,10.7l-1.1-1c-1.1-1-2.2-2-3.5-2.5-.7-.3-1.6.3-2.4,0,1.2.5,2.3,1.5,3.4,2.5,1,.9,1.9,1.8,2.9,2.7-.7,1.5-1.4,3.1-2.1,4.7-.9,2-1.8,4-2.1,6.3,0-.2,2.4.2,2.4,0,.3-2.4,1.3-4.3,2.1-6.3s.9-2,1.4-3c2,2,3.9,4.1,5.8,6.2.2.2,1,0,1.2,0h1.3c-2.2-2.5-4.5-4.9-6.8-7.2-.2-.2-.5-.4-.7-.7.1-.3.3-.6.4-1,1.8-3.9,3.7-7.7,5.7-11.4,0-.2.2-.3.2-.4,1.5,1.8,3.1,3.7,4.6,5.5.2.2,1,0,1.2,0h1.3c-2-2.4-4-4.8-6-7.1h0c2-3.8,4.2-7.3,6.4-10.8,1.7,2.2,3.3,4.5,4.8,7,.1.2,1,0,1.2,0h1.3c-1.7-2.8-3.5-5.5-5.5-7.9h-.3,0Z"/>
  <path class="st0" d="M25.7,7.2c-.2-.3-.4-.5-.6-.8,1.4-2.1,2.8-4.2,4.3-6.3-.1.2-1,0-1.2,0s-1-.2-1.2,0c-1.1,1.5-2.1,3.1-3.2,4.7-.3-.3-.6-.7-.9-1.1-.5-.6-1-1.1-1.5-1.7-.5-.5-.9-.9-1.4-1h-2.3c.6,0,1.1.6,1.5,1.1.5.5,1,1.1,1.5,1.7.7.8,1.4,1.6,2.1,2.5-2.2,3.4-4.4,7-6.5,10.6-1.3-1.6-2.7-3.2-4.2-4.2-.3-.2-.9,0-1.2,0h-1.3c2.1,1.3,3.9,3.8,5.6,5.9-.4.7-.8,1.4-1.2,2.2-1.9,3.5-3.7,7.1-5.4,10.7l-1.1-1c-1.1-1-2.2-2-3.5-2.5-.7-.3-1.6.3-2.4,0,1.2.5,2.3,1.5,3.4,2.5,1,.9,1.9,1.8,2.9,2.7-.7,1.5-1.4,3.1-2.1,4.7-.9,2-1.8,4-2.1,6.3,0-.2,2.4.2,2.4,0,.3-2.4,1.3-4.3,2.1-6.3.4-1,.9-2,1.4-3,2,2,3.9,4.1,5.8,6.2.2.2,1,0,1.2,0h1.3c-2.2-2.5-4.5-4.9-6.8-7.2-.2-.2-.5-.4-.7-.7.1-.3.3-.6.4-1,1.8-3.9,3.7-7.7,5.7-11.4,0-.2.2-.3.2-.4,1.5,1.8,3.1,3.7,4.6,5.5.2.2,1,0,1.2,0h1.3c-2-2.4-4-4.8-6-7.1h0c2-3.8,4.2-7.3,6.4-10.8,1.7,2.2,3.3,4.5,4.8,7,.1.2,1,0,1.2,0h1.3c-1.7-2.8-3.5-5.5-5.5-7.9h-.3Z"/>
</svg>