<?xml version="1.0" encoding="UTF-8"?>
<svg id="Layer_1" xmlns="http://www.w3.org/2000/svg" version="1.1" viewBox="0 0 589.8 620.6">
  <!-- Generator: Adobe Illustrator 29.0.0, SVG Export Plug-In . SVG Version: 2.1.0 Build 186)  -->
  <defs>
    <style>
      .st0 {
        fill: #ce9b63;
      }

      .st1 {
        fill: #e0ac69;
      }

      .st2 {
        fill: #020202;
      }

      .st3 {
        fill: #020100;
      }

      .st4 {
        fill: #a82a09;
      }

      .st5 {
        fill: #4c0d0d;
      }

      .st6 {
        fill: #9b210a;
      }
    </style>
  </defs>
  <polygon points="91.1 352.7 40.2 346.3 39.3 352.6 90.3 359 91.1 352.7"/>
  <g>
    <path class="st1" d="M38.2,353c-22.9-6.8-34.5,1.3-37.5,20.6-3.6,19.7,10.5,29.3,33.9,33.6l3.6-54.2h0,0Z"/>
    <path class="st0" d="M37.6,361.9s-19.6-4-22.3,11.3c-2.7,15.3,20.1,22,20.1,22l2.2-33.3h0Z"/>
    <path d="M31,361.5c-2.1,0-4.4-.1-6.5.3-3.2.6-6.2,2.2-8.3,4.4-4.9,5-5.3,12.6-2.6,18.7.1.3,3.7,0,4.1,0h2.9c.1,0,1.2,0,1.2,0-2.3-5.2-2.4-11.5.8-16.4,1.4-2.2,3.5-4,5.9-5.2,1.1-.6,2.3-1,3.5-1.3.7,0,1.3,0,1.9,0h2.9c.3,0,.8-.1,1.2,0-2.2-.4-4.6-.3-6.9-.3h0s0,0,0,0Z"/>
  </g>
  <g>
    <path class="st1" d="M52.2,327.8c-20.2,54.3-18,108,8.2,160.8,20.6,44.4,61.4,78.6,115.1,106.3,22.7,10.6,45.7,17.7,69,21.7,6.7,1.2,37,6.1,77.2,2.2,41.4-4,71.2-15.3,77.3-17.6,20.8-8,82.9-27,115.2-87.8,23.7-44.7,37.5-86.2,36-122.7.1-58.4-28-94.3-61.5-125.8l-168.3-31.4-135.3,3.2-94.9,40.9-37.9,50.1h0s0,0,0,0Z"/>
    <path class="st4" d="M48.8,329.8c1.9-62.2,22.4-107.5,76.3-122.2,33.3-11.8,63.4-13.1,89.6-1l-11.7,15.3,4,2.8c17.3-19.8,34.1-37.5,47.7-43,37.8-10.9,74.1-9.6,109.6-1.5,35.3,11.9,70,30.3,104.3,53.7l51.1,39.8c25.1,37.9,28.7,57.2,31.5,75.8-17.4-8.2-38.2,1.6-51.3-18.1-5.4,16.8-2.7,8.8-11.6,16.6-24.8-1.3-57.4-54.2-65.9-48-5.6,4.1-9.1,16.1-17.1,18.8-34.9-15.2-77.7-52.2-81.7-53.6s-4.5,6.7-13.2,7.8c-11,3.5-32.6-7.7-60-17-27.5-9.3-49.8-2.2-74.1,9.1-37.9,6-83,32.5-127.5,64.9h0s0,0,0,0Z"/>
    <path class="st2" d="M183.1,308.1c-2.7-1-5.5-2.1-8.3-2.7-6.5-1.4-13.2-1-19.8-.4-12.2,1.2-25.5,4.9-31.1,15.8,0,0,7.7,3.1,7.8,3,4.4-8.6,14.1-13,23.9-14.8,5.1-1,10.4-1.4,15.6-1.5,2.8,0,5.6,0,8.4.4,1.2.1,2.4.4,3.7.7.1,0,.2.1.3.2,2.4,1.4,5.5,1.7,7.8,3-2.6-1.5-5.4-2.5-8.2-3.6h0s0,0,0,0Z"/>
    <path class="st3" d="M146.8,358.7c3-10.3,15.5-16,27.9-12.8s19.9,14.2,16.8,24.5-15.5,16-27.9,12.8c-12.3-3.2-19.9-14.2-16.8-24.5Z"/>
    <path class="st3" d="M375.9,360.6c3.1-10.3,15.5-16,27.9-12.8s19.9,14.2,16.8,24.5c-3.1,10.3-15.5,16-27.9,12.8s-19.9-14.2-16.8-24.5h0Z"/>
    <path class="st5" d="M203.3,469.6l155.8,9.4c-1.1,37.6-23,56.5-68,54.6-52.8-2.3-83.6-22.4-87.9-64h0s0,0,0,0Z"/>
    <path d="M265.3,530.8c2.4-7.8,7-14.3,19.5-15.9,16-3.5,29.1,2.6,40.6,14.3-8.1,5.4-34.5,6-60.1,1.6h0Z"/>
    <path class="st2" d="M212.9,455c-.9-.3-1.9-.7-2.8-1s-1.9-.7-2.8-1c-.2,0-.9-.4-1.2-.4-11.6,2.6-21.3,10.5-25.3,20.8,0,.1,7.9,2.8,7.9,2.8,4-10.2,13.7-18.2,25.3-20.8-.1,0-1.2-.5-1.1-.4h0Z"/>
    <path class="st2" d="M370,472.7c-2.7-2-5.6-3.7-8.7-5-4.2-1.7-8.5-3.3-12.9-4.4,2.4.6,4.6,1.8,7,2.5,1.2.5,2.3,1.1,3.4,1.8,2.4,1.5,4.7,3.2,6.6,5.1,3.9,3.8,6.9,8.4,8.5,13.4,0,0,1.2.5,1.1.4.9.3,1.9.7,2.8,1s1.9.7,2.8,1c.2,0,1.1.3,1.2.4-2.1-6.3-6.2-11.9-11.8-16.2h0s0,0,0,0Z"/>
    <g>
      <polygon points="78.7 328.6 78.9 398.5 92.2 398.4 92 328.5 78.7 328.6"/>
      <polygon points="257.7 394.4 78.7 396.4 78.8 405.1 257.7 403.2 257.7 394.4"/>
      <polygon points="260.1 326.4 81.2 328.4 81.2 337.1 260.2 335.2 260.1 326.4"/>
      <polygon points="246.3 329.5 246.6 401 259.9 400.8 259.6 329.3 246.3 329.5"/>
      <polygon points="259.6 395.6 253 395.6 253 402.8 259.6 402.7 259.6 395.6"/>
    </g>
    <polygon points="321.3 359.6 248.1 362.2 248.4 368.6 321.6 365.9 321.3 359.6"/>
    <polygon points="557.2 363 484 363.9 484.1 370.3 557.3 369.4 557.2 363"/>
    <polygon class="st6" points="210.6 252.9 175.1 250.6 141.3 261.7 102 278.7 83 291.5 66.4 304.4 49.7 314.1 48.8 329.8 77.6 309.4 101.8 294 131.7 279.1 151.2 271.1 172.6 265.6 176.3 264.9 185.3 260.8 193.3 257.8 200.5 255.5 210.6 252.9"/>
    <polygon class="st6" points="211.7 252.7 223.9 248 245.6 250.6 256.5 253.1 267.3 258.2 283.6 263.3 291.7 265.9 299.8 268.5 308 268.5 316.1 265.9 318.8 263.3 324.2 260.8 329.7 263.3 335.1 268.5 348.6 278.7 367.6 288.9 381.2 299.1 397.1 308.6 405.6 314.5 411 309.4 419.1 301.7 421.8 296.6 427.3 296.6 432.7 301.7 443.5 311.9 454.4 319.6 462.5 327.2 473.3 334.9 481.5 342.6 490.6 342.6 495 337.5 497.7 329.8 500.4 327.2 503.2 329.8 507.7 334.6 516.7 340 524.8 340 535.6 342.6 543.8 345.1 551.1 349.5 545.4 347.5 541.6 346.6 535.6 345.8 527.6 345.1 523.9 344.8 521.8 344.5 519.4 344.1 516.3 343.4 512.9 342.3 510.9 341.4 508.4 340.1 506.4 338.6 504.8 337.2 502.6 335.1 500.4 332.4 499.8 331.4 499.7 331.8 497.7 337.9 497 339.9 496.2 341.7 495.9 342.3 495.4 342.9 494.8 343.5 493.8 344 492.5 344.7 491.5 345.4 490.1 346.4 478.8 345.1 476.2 344 473.3 342.6 471.2 341 468.8 339.2 466.3 337.3 464.1 335.5 461.3 332.9 450.9 323.1 446.3 318.4 441.8 313.6 437.9 309.7 434.1 305.9 429.6 302.1 426 299.9 424 299.5 423.2 299.6 422.3 299.9 421.2 300.9 419.9 302.3 418.1 304.7 416 307.9 413.8 311.1 411.5 314.2 409.7 316.1 408.2 317.2 406.9 318 405.2 318.7 402 317.3 399.1 315.9 396.4 314.5 393.8 313.2 376.4 303 371.7 299.9 364.1 294.8 356.3 289.3 351.1 285.3 343.5 279.8 335.1 273.4 328.2 268.1 325.4 266.2 323.7 265.2 323.1 265 322.8 265 322.4 265 322 265.1 321.5 265.3 320.8 265.8 320.2 266.5 319.1 267.6 318.5 268.4 317.5 269.4 316.1 270.7 314.7 271.5 313.4 272.1 312.6 272.4 310.9 272.8 310.4 272.9 309.6 273.1 308.4 273.3 306.8 273.5 305.7 273.5 304.6 273.5 302.7 273.3 301 273.1 299.6 272.9 298.1 272.6 211.7 252.7"/>
    <path class="st2" d="M412.1,314.7c-3.3-2-6.9-3.6-10.8-4.6-7.9-2.2-16.5-2-24.2.6.3-.1,3.1,2,3.5,2.3.8.5,1.7,1,2.5,1.6.2.1.9.7,1,.6,6.2-2.1,12.8-2.6,19.4-1.6,3.2.5,6.3,1.3,9.2,2.5,1.1.5,2.2,1,3.3,1.6.3.3.6.5.9.7,2,1.8,4.9,2.7,7,4.5-3.6-3.1-7.8-5.6-11.8-8.1h0Z"/>
    <g>
      <polygon points="309.1 326 309.3 396 322.6 395.8 322.4 325.9 309.1 326"/>
      <polygon points="488.1 391.9 309.1 393.8 309.2 402.6 488.1 400.6 488.1 391.9"/>
      <polygon points="490.6 323.8 311.6 325.8 311.7 334.6 490.6 332.6 490.6 323.8"/>
      <polygon points="476.8 326.9 477 398.4 490.3 398.2 490 326.8 476.8 326.9"/>
      <polygon points="490 393 483.4 393.1 483.4 400.3 490.1 400.2 490 393"/>
    </g>
    <g>
      <path class="st1" d="M552.3,375.5c24.9-3.9,36.2,5.6,37.4,25.2,1.8,20-14.1,27.7-39.2,29.1l1.8-54.3h0Z"/>
      <path class="st0" d="M552,384.4s21.1-1.5,22.4,14.1-23.5,19.3-23.5,19.3l1.1-33.3Z"/>
      <path d="M559,384.8c2.3.3,4.6.4,6.8,1.1,3.3,1,6.3,2.9,8.3,5.5,4.7,5.6,4.3,13.2.8,18.9-.1.2-3.9-.4-4.3-.5-1-.1-2-.3-3-.4-.1,0-1.2-.2-1.2-.2,2.9-4.9,3.7-11.1.8-16.4-1.2-2.4-3.2-4.4-5.7-6-1.1-.7-2.3-1.3-3.6-1.7-.7,0-1.4-.2-2-.3-1-.1-2-.3-3-.4-.4,0-.9-.2-1.2-.2,2.4-.2,4.9.3,7.3.5h0s0,0,0,0Z"/>
    </g>
    <g>
      <rect x="268.6" y="20.9" width="2.7" height="116.5"/>
      <rect x="241.5" y="105.6" width="2.7" height="28.2"/>
      <rect x="241.5" y="-.3" width="2.7" height="84.7"/>
      <rect x="214.3" y="63.3" width="2.7" height="84.7"/>
    </g>
    <g>
      <rect x="311.9" y="55.9" width="3.5" height="84.4"/>
      <rect x="346.8" y="117.3" width="3.5" height="20.5"/>
      <rect x="346.8" y="40.6" width="3.5" height="61.4"/>
      <rect x="381.6" y="86.6" width="3.5" height="61.4"/>
    </g>
  </g>
</svg>