<?xml version="1.0" encoding="UTF-8"?>
<svg xmlns="http://www.w3.org/2000/svg" xmlns:xlink="http://www.w3.org/1999/xlink" version="1.1" viewBox="0 0 1920 1080">
  <!-- Generator: Adobe Illustrator 29.0.0, SVG Export Plug-In . SVG Version: 2.1.0 Build 186)  -->
  <defs>
    <style>
      .st0 {
        fill: #cf142b;
      }

      .st1, .st2 {
        fill: none;
      }

      .st3 {
        fill: #4104b7;
      }

      .st4 {
        fill: #440613;
      }

      .st5 {
        fill: #fff;
      }

      .st5, .st6, .st7, .st8 {
        isolation: isolate;
      }

      .st5, .st8 {
        font-family: Krungthep, Krungthep;
        font-size: 225.1px;
      }

      .st9 {
        fill: #7a6c6e;
      }

      .st10 {
        fill: #f2e49c;
      }

      .st6, .st11 {
        font-family: Arial-Black, 'Arial Black';
        font-weight: 800;
      }

      .st12 {
        fill: #e0ac69;
      }

      .st13 {
        fill: #feff8c;
      }

      .st14 {
        fill: #feffd1;
      }

      .st15 {
        fill: #e6e6e6;
      }

      .st16 {
        fill: #cdf5f9;
      }

      .st17 {
        fill: #75686a;
      }

      .st18 {
        fill: #3c8438;
      }

      .st19 {
        fill: #3a7c37;
      }

      .st20 {
        fill: #fae1e3;
      }

      .st21 {
        fill: #565555;
      }

      .st22 {
        fill: #bfbdb2;
      }

      .st23 {
        fill: #f4c1c9;
      }

      .st24 {
        fill: #bcbfc1;
      }

      .st25 {
        clip-path: url(#clippath-1);
      }

      .st26 {
        clip-path: url(#clippath-2);
      }

      .st27 {
        font-size: 73.9px;
      }

      .st28 {
        fill: #f5c4c6;
      }

      .st29 {
        font-size: 101.7px;
      }

      .st30 {
        fill: #020202;
      }

      .st31 {
        fill: #af0404;
      }

      .st32 {
        fill: #020100;
      }

      .st33 {
        fill: #000200;
      }

      .st34 {
        fill: #22d;
      }

      .st11 {
        font-size: 36px;
      }

      .st35 {
        fill: #f3aeb6;
      }

      .st36 {
        fill: #827d6b;
      }

      .st37 {
        fill: #847274;
      }

      .st38 {
        fill: #2121ce;
      }

      .st39 {
        fill: #020000;
      }

      .st2 {
        stroke: #000;
        stroke-miterlimit: 10;
      }

      .st40 {
        fill: #a82a09;
      }

      .st41 {
        fill: #3d8739;
      }

      .st42 {
        fill: #2323c1;
      }

      .st43 {
        fill: #fbb03b;
      }

      .st44 {
        fill: #6d6b6b;
      }

      .st45 {
        fill: #fcfcfc;
      }

      .st46 {
        fill: #4b9947;
      }

      .st47 {
        fill: #4c0d0d;
      }

      .st48 {
        clip-path: url(#clippath);
      }

      .st49 {
        fill: #dd9ea7;
      }

      .st50 {
        fill: #42933e;
      }
    </style>
    <clipPath id="clippath">
      <rect class="st1" width="1920" height="909"/>
    </clipPath>
    <clipPath id="clippath-1">
      <rect class="st1" x="-5" y="-5" width="1930" height="919"/>
    </clipPath>
    <clipPath id="clippath-2">
      <rect class="st1" x="-5" y="-5" width="1930" height="919"/>
    </clipPath>
  </defs>
  <g id="Layer_1">
    <g id="Baggrund">
      <rect class="st44" x="-.5" y="904.5" width="1920" height="175"/>
      <g class="st48">
        <g class="st25">
          <g class="st26">
            <image class="st7" width="4022" height="1916" transform="translate(-5.3 -5.3) scale(.5)" xlink:href="startskærm-1.png"/>
          </g>
        </g>
      </g>
      <rect class="st15" x="405" y="992" width="1515" height="18"/>
      <rect class="st15" x="4" y="1023" width="278" height="18"/>
      <rect class="st15" x="344" y="1022" width="278" height="18"/>
      <rect class="st15" x="711" y="1022" width="278" height="18"/>
      <rect class="st15" x="1051" y="1022" width="278" height="18"/>
      <rect class="st15" x="1398" y="1023" width="278" height="18"/>
      <rect class="st15" x="1754" y="1023" width="166" height="18"/>
    </g>
    <g id="Skygger">
      <ellipse class="st21" cx="1681.5" cy="937" rx="54.5" ry="8"/>
      <ellipse class="st21" cx="1580" cy="934.4" rx="48.8" ry="2.5" transform="translate(-255.5 915.2) rotate(-30)"/>
      <ellipse class="st21" cx="1227" cy="1032" rx="55" ry="6"/>
      <ellipse class="st21" cx="649" cy="1032" rx="55" ry="6"/>
      <ellipse class="st21" cx="794" cy="501" rx="327" ry="19"/>
    </g>
    <g id="Bus">
      <path class="st22" d="M546,1005.1"/>
      <g>
        <path class="st43" d="M412.5,845.7c4.4-13.4,12.5-21.9,28-21l247.6-9.2,64.4-41.5,636-.3v-64.1h-747.8c4.8-4.4,7-14.4,4.8-27.9h836.4l4.8,227.5-187.5-1.9c-32.8-54.4-124.3-42.6-151.7,6.3h-416.4c-16.8-59.6-138.8-49.2-156.1,0l-162.5-1.5v-46.3c9.2-1.7,35.7,5.7,36-11.2-.3-16.3-27.4-7.8-36-9h0Z"/>
        <path class="st10" d="M412.5,864v-16l24.7-.3s7.4-.6,7.6,7.4-6.8,9-6.8,9h-25.6Z"/>
        <path class="st10" d="M405,831"/>
        <path class="st36" d="M574.3,916l-188.1-.9s-15.1-.5-18.7,17.2,14.4,20.7,14.4,20.7l183.1-3.4c-.4-10.6,3-21.9,9.2-33.6h0Z"/>
        <path class="st36" d="M733,917c7.2,10.3,9.5,22.2,9,35h396c.8-11.7,4-23.3,9.7-35h-414.7Z"/>
        <path class="st36" d="M1303.2,911.7c8.6,10,12.2,23.6,12.8,39.3l195-5s12.8,0,12.9-17-22.1-16.5-22.1-16.5l-198.6-.7Z"/>
        <rect x="649" y="838" width="17" height="9"/>
        <ellipse cx="653.5" cy="953" rx="82.5" ry="77"/>
        <ellipse cx="1227.5" cy="953" rx="82.5" ry="77"/>
        <path class="st22" d="M673.8,899l.2,12.8-41.1,1.3c-21.1,3.6-26.4,20-24,42.5,2.6,28,19,40.1,48.9,36.4,28.5-2.4,45.8-12.7,42.1-37.8l.3-32.1,15.7-.6v36.4c0,12.5-5,22.8-12.8,31.7-13.3,11.4-30.9,16.2-52,15.4-19.7-.3-36.7-5.7-49-20.1-6.5-10-10.8-20.6-10-32.9-.5-16.2,4.6-30.2,15.2-41.9,6.1-6.2,14.7-9.7,25.3-10.9h41.3c0-.1,0-.1,0-.1Z"/>
        <path class="st22" d="M1247.8,904l.2,12.8-41.1,1.3c-21.1,3.6-26.4,20-24,42.5,2.6,28,19,40.1,48.9,36.4,28.5-2.4,45.8-12.7,42.1-37.8l.3-32.1,15.7-.6v36.4c0,12.5-5,22.8-12.8,31.7-13.3,11.4-30.9,16.2-52,15.4-19.7-.3-36.7-5.7-49.1-20.1-6.6-10-10.8-20.6-9.9-32.9-.5-16.2,4.6-30.2,15.2-41.9,6.1-6.2,14.7-9.7,25.3-10.9h41.3c0-.1,0-.1,0-.1Z"/>
        <ellipse class="st22" cx="654" cy="947.5" rx="12" ry="9.5"/>
        <ellipse class="st22" cx="1228" cy="953.5" rx="12" ry="9.5"/>
        <circle class="st31" cx="1456.5" cy="840.5" r="7.5"/>
        <circle class="st31" cx="1456.5" cy="858.5" r="5.5"/>
        <rect x="752" y="711" width="12" height="62"/>
        <rect x="887" y="711" width="12" height="62"/>
        <rect x="1005" y="711" width="12" height="62"/>
        <rect x="1116" y="711" width="12" height="62"/>
        <rect x="1223" y="711" width="12" height="62"/>
        <rect x="1305" y="711" width="12" height="62"/>
        <polygon points="538 743 533 739 534.5 710 539 716.1 538 743"/>
        <rect class="st16" x="1318" y="711" width="69.5" height="62"/>
        <rect class="st16" x="1236" y="711" width="68" height="62"/>
        <rect class="st16" x="1129" y="711" width="92" height="62"/>
        <rect class="st16" x="1018" y="711" width="97" height="62"/>
        <rect class="st16" x="900" y="711" width="104" height="62"/>
        <rect class="st16" x="765" y="711" width="121" height="62"/>
        <polygon class="st16" points="749.9 711 541.1 710 538 819 688 813 750.5 773 749.9 711"/>
        <path d="M559.7,795.5c.1-.1.2-.2.4-.3,0,0-.3,0-.6,0-4-4.3-7.8-8.7-11.4-13.3-.1-.2-1.3,0-1.5,0s-1.4.2-1.5,0c3.7,4.7,7.6,9.2,11.7,13.6-6.8,6.3-13.4,12.8-19.9,19.4l.5-57.5v-1l-4-2.9-1-.7-.5,67.1,5-.4v-1.6c7-7.2,14.1-14.1,21.4-20.9,4,4.2,8.1,8.2,12.3,12,.2.2,1.2,0,1.5,0,.3,0,1.3-.2,1.5,0-4.8-4.3-9.4-8.8-13.7-13.5h0Z"/>
        <rect x="751" y="819" width="642" height="12"/>
        <rect x="751" y="850" width="642" height="12"/>
      </g>
    </g>
    <g class="st7">
      <text class="st8" transform="translate(472.3 503.6) scale(1.1 1)"><tspan x="0" y="0">DREAD</tspan></text>
    </g>
    <g class="st7">
      <text class="st5" transform="translate(476.6 498.4) scale(1.1 1)"><tspan x="0" y="0">DREAD</tspan></text>
    </g>
    <g>
      <ellipse class="st35" cx="1042.7" cy="331.9" rx="9.3" ry="11.5" transform="translate(80.2 852.4) rotate(-46.1)"/>
      <ellipse class="st28" cx="1055" cy="338.8" rx="12.9" ry="12.8" transform="translate(79 863.4) rotate(-46.1)"/>
      <ellipse class="st28" cx="1067.9" cy="348.3" rx="7.7" ry="10.2" transform="translate(76.1 875.6) rotate(-46.1)"/>
      <path d="M1050.9,325.8c-2.9-3.6-7.7-5.3-12.2-4.5s-8.1,4.2-9.6,8.4c-.3.9,1.1,1.3,1.5.4,1.3-3.7,4.6-6.6,8.5-7.4s8.2,1,10.7,4.1c.6.8,1.7-.3,1.1-1.1h0Z"/>
      <path class="st35" d="M1034.4,328.9l-.8-.4c-.2-.1-.4-.2-.6-.2-.2,0-.4,0-.6,0-.2,0-.4.1-.5.3-.2.1-.3.2-.4.4l-.2.4c0,.3,0,.5,0,.8l.2.4c.1.2.3.4.5.5l.8.4c.2.1.4.2.6.2.2,0,.4,0,.6,0,.2,0,.4-.1.5-.3.2-.1.3-.2.4-.4l.2-.4c0-.3,0-.5,0-.8l-.2-.4c-.1-.2-.3-.4-.5-.5h0Z"/>
      <path class="st35" d="M1032.7,326.5l-1.4,2c-.1.1-.1.4,0,.6s.2.4.3.5c.2,0,.4.1.6,0s.3-.2.5-.3l1.4-2c.1-.1.1-.4,0-.6s-.2-.4-.3-.5c-.2,0-.4-.1-.6,0s-.3.2-.5.3h0Z"/>
      <path class="st35" d="M1032.5,326.7l-1.6,2.7c-.2.3,0,.8.3,1s.8,0,1-.3l1.6-2.7c.2-.3,0-.8-.3-1s-.8,0-1,.3h0Z"/>
      <path class="st35" d="M1032.2,327.1l-.7,1.2c0,.2-.1.4,0,.6,0,.2.2.4.3.5.2,0,.4.1.6,0s.3-.2.5-.3l.7-1.2c0-.2.1-.4,0-.6,0-.2-.2-.4-.3-.5-.2,0-.4-.1-.6,0s-.3.2-.5.3h0Z"/>
      <path class="st35" d="M1032.6,326.8c-.4.2-.7.5-1,.9-.1.2-.2.4-.3.6,0,.2-.1.4-.2.7,0,.2,0,.4.2.5s.3.2.5.2.4,0,.5-.2h.1c0-.3,0-.4,0-.5h0c0,0,0,.1,0,.2,0-.2,0-.4.1-.5v.2c0-.2,0-.3.2-.5h-.1c.1,0,.2-.1.4-.2h-.2c0,0,.1,0,.2,0,.2-.1.3-.3.3-.5s0-.4,0-.6-.3-.3-.5-.3-.4,0-.6,0h0Z"/>
      <path class="st35" d="M1034.1,332.2l-2-2.8c-.1-.2-.2-.3-.5-.3-.2,0-.4,0-.6,0-.3.2-.5.7-.3,1l2,2.8c.1.2.2.3.5.3.2,0,.4,0,.6,0,.3-.2.5-.7.3-1h0Z"/>
      <path class="st35" d="M1034.2,332.3l-1.5-2c-.1-.2-.2-.3-.5-.3-.2,0-.4,0-.6,0s-.3.3-.3.5,0,.4,0,.6l1.5,2c.1.2.2.3.5.3.2,0,.4,0,.6,0s.3-.3.3-.5,0-.4,0-.6h0Z"/>
      <path class="st35" d="M1032.8,330.5l-.7-1c0,0-.1-.2-.2-.2,0,0-.2-.1-.3-.1,0,0-.2,0-.3,0,0,0-.2,0-.3,0-.2.1-.3.3-.3.5s0,.4,0,.6l.7,1c0,0,.1.2.2.2,0,0,.2.1.3.1,0,0,.2,0,.3,0,0,0,.2,0,.3,0,.2-.1.3-.3.3-.5s0-.4,0-.6h0Z"/>
      <path class="st35" d="M1032.2,330c0,0,0-.1,0-.2,0,0,0,0,0-.1,0,0,0,0,0,0,0-.1.1-.3.2-.4.1-.3.3-.5.5-.8,0,0,0-.1.1-.2,0,0,0-.1,0,0,0,.1,0,0,0,0,0-.1.2-.2.3-.3.2-.2.4-.4.7-.6.3-.2.3-.8,0-1.1-.3-.3-.7-.3-1.1,0-1,.9-1.8,2-2.3,3.3-.1.4.2.8.5.9.4.1.8-.1.9-.5h0Z"/>
      <path class="st35" d="M1040.2,341.2c1,1,2.1,1.9,3.2,2.9.3.3.8.3,1.1,0,.3-.3.3-.8,0-1.1-1-1-2.1-1.9-3.2-2.9-.3-.3-.8-.3-1.1,0-.3.3-.3.8,0,1.1h0Z"/>
      <path class="st35" d="M1057,350.3l4.8,3.1.6-1.4c-2-.7-4-1.4-6-2.1-.8-.3-1.3,1-.6,1.4,2.5,1.2,5,2.4,7.6,3.7.4.2.8.1,1-.3.2-.3,0-.9-.3-1-2.5-1.2-5-2.4-7.6-3.7l-.6,1.4c2,.7,4,1.4,6,2.1.8.3,1.3-.9.6-1.4l-4.8-3.1c-.8-.5-1.6.8-.8,1.3h0Z"/>
      <path class="st28" d="M1055.3,351.7c3.1,1.3,6.2,2.6,9.4,3.9.4.2.8-.2.9-.5.1-.4-.2-.8-.5-.9-3.1-1.3-6.2-2.6-9.4-3.9-.4-.2-.8.2-.9.5-.1.4.2.8.5.9h0Z"/>
      <path class="st28" d="M1054.8,351.7c2,.9,4,1.8,6,2.7.4.2.8.1,1-.3.2-.3,0-.9-.3-1-2-.9-4-1.8-6-2.7-.4-.2-.8-.1-1,.3-.2.3,0,.9.3,1h0Z"/>
      <path class="st35" d="M1061,354.5l4.5,1.6c.4.1.8-.1.9-.5,0-.4-.1-.8-.5-.9l-4.5-1.6c-.4-.1-.8.1-.9.5,0,.4.1.8.5.9h0Z"/>
      <path class="st28" d="M1073.2,355.3l-.7,1.5c0,.2-.1.4,0,.6,0,.2.2.4.3.5.2,0,.4.1.6,0,.2,0,.4-.2.5-.3l.7-1.5c0-.2.1-.4,0-.6,0-.2-.2-.4-.3-.5-.2,0-.4-.1-.6,0-.2,0-.4.2-.5.3h0Z"/>
      <path class="st28" d="M1070.5,357.3l2.1.5c.2,0,.4,0,.6,0,.2,0,.3-.3.3-.5,0-.4-.1-.8-.5-.9l-2.1-.5c-.2,0-.4,0-.6,0-.2,0-.3.3-.3.5,0,.4.1.8.5.9h0Z"/>
      <path class="st20" d="M1053.2,327.2c3.4-.2,6.8,1,9.2,3.4s3.6,5.8,3.4,9.2c0,1,1.4,1,1.5,0,.2-3.8-1.2-7.6-3.9-10.3s-6.5-4.1-10.3-3.9c-1,0-1,1.6,0,1.5h0Z"/>
      <path d="M1068.3,340.3c.3-5.6-2.5-11.1-7.2-14.2-.8-.5-1.6.8-.8,1.3,4.3,2.8,6.8,7.8,6.5,12.9,0,1,1.4,1,1.5,0h0Z"/>
      <path class="st20" d="M1061.2,344.8c2.4-2.4,6.3-3.2,9.5-1.8s5.1,4.8,4.9,8.2c0,1,1.5,1,1.5,0,.2-4-2.2-8-5.9-9.6s-8.2-.7-11.1,2.1c-.7.7.4,1.7,1.1,1.1h0Z"/>
      <path d="M1074.8,358.8c2.2-3,3-7,2.2-10.7-.2-.9-1.7-.5-1.5.4.7,3.3,0,6.8-2.1,9.5-.2.3,0,.8.3,1,.4.2.8,0,1-.3h0Z"/>
      <path d="M1076.8,348c-.2-2.6-1.5-5-3.7-6.5s-5.1-2-7.6-1.2c-.9.3-.5,1.7.4,1.5,2.2-.6,4.5-.3,6.3,1,1.7,1.2,2.9,3.2,3,5.3,0,1,1.6,1,1.5,0h0Z"/>
      <path class="st35" d="M1046.1,329.5c-.7,3.6.9,7.3,3.5,9.8,2.8,2.8,6.6,4.3,10.3,5.4.9.3,1.3-1.1.4-1.5-3.3-1.1-6.7-2.3-9.3-4.8-2.3-2.2-4-5.4-3.4-8.7.2-.9-1.3-1.4-1.5-.4h0Z"/>
      <path class="st35" d="M1059.2,345.4c2.4,5.1,6.1,9.6,10.6,13,.8.6,1.5-.7.8-1.3-4.3-3.3-7.7-7.6-10.1-12.5-.4-.9-1.7-.1-1.3.8h0Z"/>
      <path class="st35" d="M1044.8,338.4c.6,1,1.5,1.6,2.7,1.8.4,0,1-.2,1-.7,0-1.1-1-1.8-2.1-1.6-1.2.1-1.8,1.5-1.6,2.6s1.2,2.2,2.4,2.1,1.8-1.4,1.4-2.5c-.9-2.3-4.6-1.8-4.1.9.2,1,1.2,1.8,2.3,1.5s1.6-1.6,1.4-2.7c-.3-1.5-2.2-2.9-3.6-3.1s-2.9.8-2.6,2.3c0,.3.4.6.7.5,3-.2,3.5-4.5.5-5-.4,0-.9.1-.9.5-.2,1.4,1.3,2.4,2.6,1.6,1.7-1,.5-3.1-.6-3.9l.3.9c.4-.9,1-1.6,1.7-2.2l-1.1-.9c-.8,3.6,1,7,3.7,9.4,1.4,1.3,3,2.3,4.6,3.4s3.2,2,5,2.4c.8.2,1.4-1,.6-1.4-.5-.2-1-.5-1.6-.8l-.6,1.4c.6.2,1.2.4,1.8.6.9.3,1.3-1.1.4-1.5-6.6-2.4-11.5-7.7-16.1-12.8-.4-.5-1.3-.1-1.3.5.3,3.9,3.2,7.3,7.1,7.9.6,0,1.3-.5.8-1.1-1.4-1.9-3.5-2.8-5.9-2.4l.9.5c-.2-1.1-.8-2-1.7-2.6-.8-.5-1.5.7-.8,1.3,1,.7,2.1,1,3.2.9.5,0,.9-.5.7-1-.3-1-.8-1.8-1.6-2.5v1.1l.8-.8c.7-.7-.4-1.7-1.1-1.1-1.2,1.2-2.2,2.5-3.1,3.9-.4.7.4,1.3,1,1,1-.5,1.8-1.2,2.4-2.1.4-.7-.6-1.5-1.2-.9-2.2,2.4.5,5.9,3.4,4.3.4-.2.5-.8.2-1.2-1.2-1.3-3.4-.3-3.5,1.4-.2,2.8,3.2,3.1,5.1,2.9.7,0,1-.8.5-1.3-1.7-1.9-4.5-2.4-6.8-1.3-.5.2-.4.8-.2,1.2,1.1,1.4,2.5,2.5,4.2,3.1,1.1.4,2.7.5,3.2-.8.4-1.3-.8-2.4-1.8-2.8-1.8-.7-3.9-.6-5.7,0-.5.2-.8.9-.3,1.2,4.5,3.8,10.1,5.9,16,6.2.8,0,.9-1,.4-1.4-3.3-2.5-7.1-4.3-11.1-5.4l-.4,1.5c3.6.9,7,2.5,10.4,4,.9.4,1.6-.8.8-1.3-3-1.9-6.2-3.5-9.6-4.8l-.4,1.5c2.5,1,4.8,2.3,6.9,4l.9-1.2c-1.8-1.1-3.7-2-5.8-2.5-.8-.2-1.3.9-.6,1.4l7.1,4.7.8-1.3c-2-1.3-4-2.4-6.2-3.4-.9-.4-1.6.8-.8,1.3,2,1.2,4,2.4,5.9,3.5l.8-1.3c-2.6-1.3-5.2-2.6-7.8-4l-.8,1.3c2.5,1.1,4.9,2.3,7.4,3.3,1.5.6,3.9.7,4.2-1.4l-1.4.2c1.9,2.9,3.8,5.9,5.6,8.8l1.2-.9c-2.4-2.2-4.3-4.9-6.2-7.6-.5-.8-1.7-.1-1.3.8,1,2.2,2.3,4.1,3.8,6l1.1-1.1c-2.1-1.7-4.1-3.4-6.2-5l-.9,1.2,4.5,3c.7.5,1.5-.6.9-1.2-2.2-2.1-4.6-4.2-7.6-4.7-1.8-.3-3.4-.3-5.1-1.1-1.4-.7-2.7-1.3-4.2-1.5-.7,0-1,1.1-.4,1.4,4.9,2.3,9.8,4.5,14.8,6.6.8.3,1.3-.9.6-1.4-2.3-1.5-4.7-3-7.1-4.4-.8-.5-1.4.6-.9,1.2,2.9,3.4,6.5,6.2,10.6,8.2l.6-1.4c-6.3-2.5-12-6.3-17.5-10.1-.8-.5-1.5.8-.8,1.3,5.7,3.9,11.4,7.8,17.9,10.3.8.3,1.3-1,.6-1.4-4-1.9-7.4-4.6-10.3-8l-.9,1.2c2.3,1.5,4.7,3,7.1,4.4l.6-1.4c-4.9-2-9.7-4.1-14.5-6.4l-.4,1.4c1.5.1,2.8,1,4.1,1.6s2.7.7,4.1.9c3.1.3,5.4,2.4,7.6,4.4l.9-1.2-4.5-3c-.7-.5-1.6.6-.9,1.2,2.1,1.7,4.1,3.4,6.2,5,.8.6,1.7-.3,1.1-1.1-1.4-1.7-2.6-3.6-3.5-5.7l-1.3.8c1.9,2.8,3.9,5.6,6.4,7.9.6.5,1.7-.2,1.2-.9-1.9-2.9-3.8-5.9-5.6-8.8-.3-.5-1.3-.5-1.4.2-.2,1.9-3.9-.4-4.9-.8-1.5-.7-3-1.4-4.5-2-.9-.4-1.6.9-.8,1.3,2.6,1.3,5.2,2.6,7.8,4,.9.4,1.6-.8.8-1.3-2-1.2-4-2.4-5.9-3.5l-.8,1.3c2.2.9,4.2,2.1,6.2,3.4.8.5,1.6-.8.8-1.3l-7.1-4.7-.6,1.4c1.9.5,3.7,1.3,5.4,2.4.7.4,1.6-.6.9-1.2-2.3-1.9-4.8-3.3-7.5-4.3-.9-.4-1.3,1.1-.4,1.5,3.2,1.3,6.3,2.8,9.2,4.6l.8-1.3c-3.5-1.6-7-3.3-10.8-4.2-.9-.2-1.3,1.2-.4,1.5,3.9,1,7.5,2.8,10.8,5.2l.4-1.4c-5.5-.2-10.8-2.2-15-5.7l-.3,1.2c1-.4,2-.5,3-.5.3,0,3.5.9,2.3,1.4-.6.3-2.1-.7-2.5-1-.8-.5-1.5-1.2-2-1.9l-.2,1.2c1.7-.8,3.7-.3,5,1.1l.5-1.3c-1,.1-2.1.3-3-.2-.4-.3-.8-.7-.6-1.2.1-.3.5-.6.8-.3l.2-1.2c-1.3.7-2.6-.8-1.5-2l-1.2-.9c-.5.8-1.1,1.2-1.9,1.6l1,1c.8-1.3,1.8-2.5,2.9-3.6l-1.1-1.1-.8.8c-.3.3-.3.8,0,1.1.6.5,1,1.1,1.2,1.8l.7-1c-1,0-1.7-.1-2.5-.7l-.8,1.3c.6.4.9,1,1,1.7,0,.4.6.6.9.5,1.6-.3,3.2.4,4.2,1.7l.8-1.1c-3.2-.5-5.8-3.2-6-6.5l-1.3.5c4.8,5.3,9.9,10.6,16.8,13.1l.4-1.5c-.6-.2-1.2-.4-1.8-.6-.8-.3-1.3,1-.6,1.4.5.2,1,.5,1.6.8l.6-1.4c-1.6-.4-3-1.2-4.3-2.1s-2.7-1.8-4-2.9c-2.5-2.1-4.6-5.1-3.9-8.5.1-.6-.5-1.3-1.1-.9-1.1.8-1.9,1.8-2.4,3.1-.1.3,0,.7.3.9s.9.8.7,1.2c0,.2-.4,0-.5.2l-.9.5c1.3.2,1.4,2,0,2.1l.7.5c-.3-1.3,2.5.3,2.8.7.3.3.6.7.5,1.2,0,.4-.7.9-.7.2-.2-1.5,2,.2,1.1.5-.4.1-.7-.6-.8-.9,0-.5.7-1.2.7-.7l1-.7c-.8-.1-1.3-.5-1.8-1.2-.5-.8-1.8,0-1.3.8h0Z"/>
      <path class="st35" d="M1065.4,356.4l1.9.7.4-1.5c-4-1.1-7.9-2.5-11.7-4.3l-.4,1.4c1.2,0,2.4.5,3.4,1.1.8.5,1.6-.8.8-1.3-1.3-.8-2.7-1.2-4.2-1.3-.7,0-1,1.1-.4,1.4,3.9,1.8,7.9,3.3,12.1,4.5.9.3,1.3-1.1.4-1.5l-1.9-.7c-.9-.3-1.3,1.1-.4,1.5h0Z"/>
      <path class="st35" d="M1056.7,351c-2-1.4-4.2-2.5-6.4-3.5-.9-.4-1.5.7-.8,1.3,1.8,1.3,3.5,2.6,5.3,3.8.3.2.8,0,1-.2.2-.3.2-.7,0-1-1.3-1.6-3.1-2.5-4.9-3.4s-3.6-1.7-4.8-3.2l-1,1c.9.6,1.8,1.2,2.6,1.8.8.5,1.6-.8.8-1.3-.9-.6-1.8-1.2-2.6-1.8-.6-.4-1.5.4-1,1,1.3,1.7,3.1,2.7,4.9,3.6s3.7,1.8,5,3.4l.9-1.2c-1.8-1.3-3.5-2.6-5.3-3.8l-.8,1.3c2.2,1,4.4,2.1,6.4,3.5.8.5,1.5-.8.8-1.3h0Z"/>
      <path class="st35" d="M1045.7,345c-.9-.9-1.8-1.8-2.7-2.6-.3-.3-.8-.3-1.1,0s-.3.8,0,1.1c.9.9,1.8,1.8,2.7,2.6.3.3.8.3,1.1,0s.3-.8,0-1.1h0Z"/>
      <path d="M1061,325.9c-4.8-2.6-10.1-.1-14.5,2.2-.8.5,0,1.8.8,1.3,3.8-2.1,8.7-4.5,13-2.2.8.5,1.6-.8.8-1.3h0Z"/>
      <path d="M1065.3,340.4c-2.8.8-5.3,2.4-7.1,4.6-.3.3-.3.8,0,1.1.3.3.8.3,1.1,0,1.7-2,3.9-3.5,6.5-4.2.9-.3.5-1.7-.4-1.5h0Z"/>
      <path d="M1046.1,328.4c-.5.5-1.1.9-1.6,1.4-.1.1-.2.4-.2.5s0,.4.2.5.3.2.5.2.4,0,.5-.2c.5-.5,1.1-.9,1.6-1.4.1-.1.2-.4.2-.5s0-.4-.2-.5-.3-.2-.5-.2-.4,0-.5.2h0Z"/>
      <path d="M1029.2,330.6c7.7,11.8,19.2,20.9,32.4,25.8,3.8,1.4,7.7,2.5,11.7,3.1.9.2,1.3-1.3.4-1.5-13.6-2.3-26.3-9.1-35.8-19-2.7-2.8-5.2-5.9-7.3-9.2-.5-.8-1.8,0-1.3.8h0Z"/>
    </g>
    <polygon class="st24" points="1485.2 797.7 1484.8 758.8 1589.8 927.5 1567.3 940.6 1485.2 797.7"/>
    <polygon class="st24" points="1400.2 680.7 1429.6 680.7 1299.6 540 1283.5 550.2 1400.2 680.7"/>
    <polygon class="st2" points="1326.6 522.4 1252.4 568.1 1175.8 526.8 1173.2 439.8 1247.3 394 1324 435.3 1326.6 522.4"/>
    <polygon class="st45" points="1326.6 522.4 1252.4 568.1 1175.8 526.8 1173.2 439.8 1247.3 394 1324 435.3 1326.6 522.4"/>
    <polygon class="st0" points="1319.2 520.2 1252.7 561.3 1183.8 524.1 1181.5 445.8 1248 404.5 1316.8 441.8 1319.2 520.2"/>
    <g id="Busmænd">
      <g>
        <path class="st39" d="M938.6,773.5c.5-12.9,5.6-19.7,15.4-20.5,13.1.5,19.2,7.3,18.2,20.5"/>
        <ellipse class="st39" cx="955.5" cy="739.5" rx="10.5" ry="13.5"/>
        <path class="st39" d="M1172.1,774c.4-13.6,4.6-20.8,12.8-21.6,10.9.5,15.9,7.7,15.1,21.6"/>
        <ellipse class="st39" cx="1186.1" cy="738.2" rx="8.7" ry="14.2"/>
        <path class="st39" d="M1148.4,773.6c.3-10.5,3.4-16,9.4-16.7,8,.4,11.7,6,11.1,16.7"/>
        <ellipse class="st39" cx="1158.7" cy="746" rx="6.4" ry="11"/>
      </g>
    </g>
    <g id="Mand">
      <g>
        <path class="st3" d="M610,739l-23.2,14.3c-3.4,3.4-4.3,7-1.8,10.6l28.4,51.9,71.7-2.8,40.5-25.5-54.5-55.5c-4.9-4.1-9.8-6.6-15-5,0,0-18.5,1.8-21.8,2.4s-5.4,2.6-5.4,2.6c3.4-1,7-1.2,11,0,4.8,5.6-9.9,16-9.9,16,0,0-16.5,8.6-21,3.5-1.1-4-.6-7.6,3.5-10.8l-2.4-1.7h0Z"/>
        <path class="st3" d="M560,752l2,28c9.1.2,17.9-2.2,26.4-7.2l-6.4-10.8c-7.4-4.7-14.7-8.4-22-10Z"/>
        <path class="st3" d="M673.7,732.2c7.5,8.8,14.9,16.7,22.3,22.8,2.7,2.3,5.7,2.7,9,2l-7-19c-6.8-3-15.2-4.6-24.3-5.8Z"/>
        <polygon class="st12" points="702 742 705 751.1 750 772 752.3 771.2 752.3 763.6 702 742"/>
        <path class="st12" d="M558.1,759l-54.4-41-2.9-5,1.1-3s1-17-2-17-3,17-3,17l-4-3s-7-18-10-18,5,22,5,22c0,0-13.4-21.6-15.7-21-4.5,1.2,11.1,23,12.9,22,0,0-20.8-15.7-22.5-13.8s18.3,16.8,18.3,16.8c0,0-24.1-11.1-25.5-9.1s19.6,12.1,19.6,12.1c4.1,4.1,10.3,6.6,17.9,8h2l64,45.2-.9-12.2h0Z"/>
        <path class="st12" d="M615,741c-3.9,3.2-5.3,6.1-4,8.9,4,1.8,10.1.2,17-2.9,7.8-4.4,13.1-11,11.5-13s-8.7-1.3-12.5,1.3l-3-.3-6.7-8.5-10.9,3,8.6,11.5Z"/>
        <path class="st12" d="M524.1,687.5c4.2,9.3,8.4,17.9,12.9,24.3,4.5,6.4,13.1,11.4,23.5,15.7,10,2.7,19.8,4,29.4,3,12-1,23.1-3.7,33.1-8.5,9.3-5.2,17-11.5,20.5-20.5-.6-9.6-1.6-18.6-3.7-25.1-2.5-7.9-5.8-14.3-9.9-19.4,0,0-4.9-7-5.9-7s-.7,5-1.3,5-17.7-6-18.7-6,1,4-1,5-25-6-25-6c0,0,1,2,0,3s-17.5.8-17.5.8c-4.9-.5-9.2,2.8-12.5,8.2-10.9,4.8-17.9,15.4-23.9,27.5h0Z"/>
        <path class="st12" d="M524.1,691.2c-5.6,1-7,4.2-5.2,9,1.7,4.9,5.8,5.5,11.1,3.8l-5.9-12.8Z"/>
        <path class="st12" d="M630,655l8,12c4.1-3.8,5.7-7.7,2.7-12-3.4-2.6-6.8-4.1-10.7,0Z"/>
        <path class="st30" d="M545.2,668.6c-.7,0-1.4,0-2.1.1-1.5.3-3,1-4.3,1.7-2.5,1.4-5.1,3.5-5.2,6.6,0,0,2,0,2,0,0-2.5,1.8-4.4,3.7-5.7,1-.7,2.1-1.3,3.2-1.8.6-.3,1.2-.5,1.9-.7.3,0,.6-.1.9-.2,0,0,0,0,0,0,.7.1,1.3-.1,2,0-.7-.1-1.4,0-2.2,0h0Z"/>
        <ellipse class="st32" cx="549.5" cy="685" rx="5.5" ry="5"/>
        <ellipse class="st32" cx="602.5" cy="665" rx="5.5" ry="5"/>
        <path class="st47" d="M575.8,704l35.2-11c3.3,9.2.2,15.6-9.8,19-11.8,3.9-20.5,1.7-25.3-8h0Z"/>
        <path d="M595.2,713.5c-.2-2.1.2-4.1,2.8-5.5,3.2-2.2,6.7-1.9,10.3,0-1.3,2-7,4.4-13.1,5.5Z"/>
        <path class="st30" d="M575.5,698.7h-1.4c0,0-.2,0-.3,0-2.3,1.6-3.7,4.4-3.6,7.2,0,0,2,0,2,0,0-2.8,1.3-5.6,3.6-7.2,0,0-.3,0-.3,0Z"/>
        <path class="st30" d="M612.6,689.9c-.8-.3-1.6-.4-2.4-.5-1.1,0-2.2,0-3.2,0,.6,0,1.2,0,1.8,0,.3,0,.6,0,.9.1.7.2,1.3.4,1.9.7,1.2.6,2.3,1.4,3.1,2.5,0,0,.3,0,.3,0h1.4s.3,0,.3,0c-1-1.3-2.5-2.4-4.1-2.9h0Z"/>
        <rect x="527.1" y="693.7" width="6.3" height="2.5" transform="translate(-252.1 305) rotate(-26.2)"/>
        <rect x="532.1" y="683.4" width="2.5" height="17.9" transform="translate(-250.6 306.1) rotate(-26.2)"/>
        <rect x="534.8" y="692.7" width="34.2" height="2.2" transform="translate(-249.4 314.4) rotate(-26.2)"/>
        <rect x="527.6" y="676.9" width="34.2" height="2.2" transform="translate(-243.1 309.6) rotate(-26.2)"/>
        <rect x="561.3" y="669.8" width="2.5" height="18.3" transform="translate(-241.7 317.6) rotate(-26.2)"/>
        <rect x="582.2" y="660.2" width="2.5" height="17.9" transform="translate(-144.8 161.4) rotate(-14)"/>
        <rect x="584" y="673.4" width="34.2" height="2.2" transform="translate(-145.6 165.8) rotate(-14)"/>
        <rect x="580.3" y="656.4" width="34.2" height="2.2" transform="translate(-141.6 164.4) rotate(-14)"/>
        <rect x="561.1" y="672.5" width="23.7" height="2.2" transform="translate(-171.9 196.9) rotate(-17)"/>
        <rect x="613.5" y="653.1" width="2.5" height="18.3" transform="translate(-142.2 168.8) rotate(-14)"/>
        <rect x="566.4" y="685.6" width="1.3" height="1.8" transform="translate(-244.6 320.3) rotate(-26.2)"/>
        <rect x="613.3" y="658.5" width="17.3" height="1.7" transform="translate(-215.9 313.6) rotate(-24.2)"/>
        <path class="st40" d="M523.6,686.1c-5.4-15.2-5.1-27.9,5.3-36.1,6.2-5.7,12.7-8.6,19.6-7.9l-1.1,4.7,1.1.3c2-6.3,4-12,6.5-14.5,7.3-5.8,15.4-8.6,24-9.7,8.9-.1,18.2,1.4,28,4.1l15,5.3c9.1,7,11.7,11.4,14,15.6-4.6-.5-8.3,3.6-13,0,.4,4.5.2,2.4-1,5-5.6,1.8-17.7-8.2-19-6-.8,1.5-.5,4.7-2,6-9.1-.7-22-6-23-6s-.4,2-2.2,3c-2.1,1.8-7.9.9-14.8,1s-11.2,3.7-15.5,8.5c-7.8,4.7-15.2,15-22,26.6h0Z"/>
        <path class="st30" d="M599.3,651.8c-.9,0-1.9.2-2.8.5-1.8.6-3.5,1.8-4.6,3.4,0,0,.9,0,1,0h.7s.3,0,.3,0c.9-1.3,2.1-2.3,3.5-3,.7-.3,1.4-.6,2.1-.7.3,0,.6,0,.9-.1,0,0,.2,0,.3,0,.7,0,1.3,0,2,0-1.1-.2-2.3-.1-3.5,0h0Z"/>
      </g>
    </g>
    <g id="Zombie">
      <g>
        <path class="st34" d="M1662,915.7c-4.1,2.1-7.7,4.7-10.5,7.8,0,0-.5,6,0,6.7s8.4.2,9.4,0-.3,6.8-.3,6.8c14.9-3.7,27.6-11,38.9-20.5,0,0-2.6-3.5-3.6-3.5s-13,4.6-14.5,4.8-6.4-9.2-8.9-8.5-10.6,6.3-10.6,6.3h0Z"/>
        <path class="st42" d="M1687.7,926.5l12-9.4s5.2,3.9,6.2,3.9,3-5,4-5,12.4,6.1,14,11c0,1.8-12.9-.4-13-1,0-1,2,5,1,6s-1.2.8-8,1c-.6.3-1.3-.2-2-1-2.7.6-5.4.7-8.1.2-3.2-1.4-5.1-3.4-6.2-5.7Z"/>
        <path class="st18" d="M1702.4,933.2s.6.8,1.6.8,8,0,9-1-.3-4-1-6c0,.3,11.9,1.9,12.6,1.3.8,1,.8,2.2,0,3.5-1.5,2-3.6,3.9-6.2,5.7-2.6,1.5-5.3,2.7-8.4,3.5h-7.1c-2,0-3.8-.2-5.1-1.5-.2-.6-.3-1.2-.3-1.8,1.2-1.8,2.8-3.3,4.9-4.4h0Z"/>
        <path class="st50" d="M1651,925c-3.7-2-7.2-3.4-10-3-2.8,0-4.7,1.2-6,3-1.2,2-.5,4,1,6,1,1.9,3.3,4,6,6,4.2,1,8.5,1.3,13,1,0,0,4.2-1,5.1-1s.9-5,.9-6-9,1-10,0,0-6,0-6Z"/>
        <path class="st50" d="M1661.5,868.1l-37,1.2c-3.9-.2-6,2.1-7,5.8l.2,7.2.4,16c1.2,1.5,3.3,1,5.8,0,3.3-1,5.8-2.9,7.2-6.1,1.2-2.5,1.2-5.4.4-8.5,0,0-1.4-.6-1.4-1.6s0-2,1-2,2,2,2,2c.6,1.8,2,3.5,4,5.2,1.9,1.9,5.2,3.8,9,5.6,3.9,1.2,7.9,1.9,12,2.2,0,0,2.1,1.4,3.5,1.8,2,.6,12-5.6,11.4-6.1-2.8-2.7-10.7-7.6-10.7-7.2,0,.7,9.5-6.8,9.3-7.1-2.1-2.2-9.9-8.4-10-8.4h0Z"/>
        <path class="st50" d="M1650.9,858c-.9,0-22.9,1-22.9,1-2.7.5-4.2,2.3-4.8,4.9v4.2l37.8-1.1.4-2.7c-4-1.9-9.6-6.4-10.5-6.3Z"/>
        <path class="st50" d="M1641.5,810.5c-8.8,40.8,11.8,53.9,42.5,57.6,34.7,1.8,53.5-11.4,58-38.1-8.4-1.9-14-7-17-15-10-4.3-16.1-11.5-14.5-23.2-30.1-11-56.6-2.6-69,18.7Z"/>
        <path class="st50" d="M1735,850c8.5,2.5,17.9-1,18.9-4.5,1.1-3.5-4-10.6-11.2-13.2-1.2,4.1-3.1,8.5-5.4,13.1-.8,1.5-1.6,3.1-2.4,4.6h0Z"/>
        <path class="st19" d="M1742,835c2.9,3.6,2.8,7.2,0,10.8-1.7.7-3.3.6-4.8,0l4.8-10.8Z"/>
        <path class="st19" d="M1750,834"/>
        <path class="st19" d="M1752,833"/>
        <path class="st50" d="M1640.3,810.5c-8.8.2-16.8,6.3-16.7,10s7,8.9,14.6,9.3c0-4.3.4-9.1,1.2-14.1.3-1.7.6-3.4.9-5.1h0Z"/>
        <path class="st19" d="M1638.2,826.9c-3.8-2.5-4.8-6-3.3-10.3,1.4-1.2,2.9-1.6,4.6-1.5l-1.3,11.8Z"/>
        <ellipse class="st13" cx="1670" cy="821.5" rx="11" ry="10.5"/>
        <ellipse class="st13" cx="1708" cy="829.5" rx="11" ry="10.5"/>
        <circle cx="1669.5" cy="821.5" r="3.5"/>
        <circle cx="1707.5" cy="830.5" r="3.5"/>
        <path class="st4" d="M1665.5,838.5l35,5c4.1,1,6.4,4,6.9,9,.6,3.9-2.3,6.4-7.9,8l-38-4.2c-4.7-1.8-7.7-4.7-6.9-10.2,1.5-4.9,5-7.6,10.9-7.6"/>
        <polygon class="st14" points="1672.3 839.5 1672 846 1679 847 1679 840.4 1672.3 839.5"/>
        <polygon class="st14" points="1689.6 841.9 1688 851 1695 852 1696 842.9 1689.6 841.9"/>
        <polygon class="st14" points="1674.7 857.7 1675 852 1679 853.2 1679 858.2 1674.7 857.7"/>
        <path class="st14" d="M1676.9,855.1"/>
        <path class="st35" d="M1741.3,829c-3.7-1.3-7.4-3-10.3-5.8-2.7-2.5-4.6-5.9-4.8-9.5,0,0-.3,0-.6,0,.2,0,.5,0,.7,0-7.2-2-12.8-7.9-14.6-15.2-.5-2.1-.7-4.3-.5-6.5h-.4c2.3-.7,4.6-.6,7-.3,1.9.2,4,.4,5.8,1.3,3.2,1.8,3.7,6.1,2.8,9.3-.7,2.3-1.9,4.3-3.2,6.3,0-.1.9.2,1,0,1.9-3.1,4.1-6.7,3.6-10.5,3.7,1.3,7.2,3.3,9.1,6.9.9,1.8,1.3,3.9.9,5.9-.4,2.2-1.6,4.1-2.7,6,0-.1.9.2,1,0,.5-.9,1-1.8,1.5-2.7,1.1.5,2.2,1,3.1,1.7,1.2,1,1.9,2.3,2.1,3.8.5,3.1,0,6.4-1.4,9.2h0Z"/>
        <path class="st37" d="M1662,865c1-.4,8.6,2.1,13.8,3.5,5.2.6,10.2.9,14.9.8,8.3-.5,15.9-1.2,22.3-2.3,1.2-.5,2.1-1.2,2.9-2,0,0,2.1,6,2.1,8s-.4,9,0,11c.4,2.2-6.6,26.2-7,26-1,3.5-3.5,9.5-5.2,9.3s-9.8-8.3-8.8-8.3-15,6-16,6-7.4-10.5-8.1-9.8c-.7.7-9.9,7.8-10.9,6.8s-3.4-17.8-3.4-17.8c0,0,1.4,1.7,2.9,1.7s12.5-5.9,12.5-6.9-9.9-6.8-9.4-7.4,7.4-6.6,7.4-7.6-6.9-6.8-10-8.7c-.2-.7-.2-1.5,0-2.3"/>
        <path class="st33" d="M1692.6,795.6c0-1,0-2,0-3,0,0-2,0-2,0,0,.9,0,1.8,0,2.7-.8,0-1.7,0-2.5,0-1.5,0-3,0-4.5.2,0-1.5,0-3,0-4.5,0,0-2,0-2,0,0,1.6,0,3.1,0,4.7-.5,0-1,.1-1.6.2-2.5.3-4.9.8-7.3,1.6-.3-1.3-.7-2.6-1-3.8,0-.2-2,.2-2,0,.4,1.5.8,3,1.2,4.5-2.5,1-4.9,2.3-7.1,4,.4-.3,1.6.3,2,0,1.6-1.3,3.4-2.4,5.3-3.3.4,1.7.9,3.4,1.3,5,0,.2,2-.2,2,0-.5-1.9-1-3.9-1.6-5.8,1.8-.7,3.7-1.2,5.5-1.6,1-.2,2.1-.4,3.1-.5,0,1.8,0,3.7,0,5.5,0,0,2,0,2,0,0-1.9,0-3.9,0-5.8.6,0,1.2-.1,1.8-.2,1.7-.1,3.5-.4,5.1,0,0,2.5-.1,5-.4,7.5,0,0,2,0,2,0,.2-2.2.3-4.4.4-6.6.5.2,1.5-.3,1.9,0-.6-.4-1.2-.7-1.9-.9h0Z"/>
        <path class="st33" d="M1654.1,872.4c-.7,0-1.3,0-2,0h0c0-.1-.1-.2-.2-.3,0,0-.3,0-.3,0h-1.7c0,.2.2.4.3.7-.6.1-1.2.3-1.8.4-.1-.1-.2-.2-.3-.4,0,0-.3,0-.3,0h-1.7l.8.8c-.7.2-1.4.5-2.1.8-.2-.2-.4-.4-.6-.5,0,0-.3,0-.3,0h-1.4c0,0-.3,0-.3,0,.4.4.9.8,1.3,1.1-1,.5-1.9,1-2.9,1.6.2,0,.8,0,1,0s.8.1,1,0c.5-.3,1-.6,1.5-.9.4.4.8.8,1.1,1.2,0,0,.3,0,.3,0h1.4s.3,0,.3,0c-.6-.7-1.2-1.3-1.8-1.9.6-.3,1.3-.6,1.9-.8.1.1.3.3.4.4,0,0,.3,0,.3,0h1.7l-.9-1c.5-.2,1.1-.3,1.6-.5h0c0,0,.3,0,.3,0h1.7c0-.2-.2-.3-.2-.5.6-.1,1.2-.2,1.8-.3h0Z"/>
        <rect x="1754" y="896" width="33" height="1"/>
        <rect x="1755" y="886" width="8" height="1"/>
        <rect x="1769" y="886" width="24" height="1"/>
        <rect x="1751" y="876" width="24" height="1"/>
        <path class="st42" d="M1660.9,930.2l20.6-12.4,14.5-4.8c1.7.8,2.8,2,3.6,3.5-12.2,11-25.4,16.7-38.9,20.5.7-2.4.9-4.7.3-6.8h0Z"/>
        <path class="st38" d="M1651.3,927.6l24.1-16.7,4.8,5.9c.4.5.8.9,1.3,1l-20.5,12.4c-3.1.3-6,.5-8.6.3-.9.2-1.3-.7-1-2.9Z"/>
        <path class="st18" d="M1660.6,930.8c-8.4,4.1-14.9,5.6-20,5.2l1.4,1.1,3.3.7,2.7.3h2.6c0,.1,2.1.1,2.1.1h2.1c0-.1,1.8-.5,1.8-.5l1.7-.4,1.3-.2h.4c0,0,.1,0,.2-.1,0,0,.2-.2.2-.3,0-.1.1-.2.1-.4v-.3c0,0,.2-1.1.2-1.1v-1.3c0,0,.1-1.1.1-1.1v-1.1c0-.3,0-.5-.3-.5h0Z"/>
        <path class="st17" d="M1680.1,916.2l17.9-8.2,6,6c6.8-16,9.7-31.6,9-47,1.1-.4,2.1-1.1,2.9-2l2,6.8v2.1c.1,0,0,3.5,0,3.5v4c0,0,0,1.6,0,1.6,0,.4.1,1,0,1.1,0,.1,0,.2,0,.3,0,.2,0,.9-.2,1.5l-2.1,8.5-2.5,8.9-2.2,6.7-2.4,6.2-.9,1.5c-1.3,1.9-2.6,2-3.9.3l-2.3-1.9-2.5-2.2-.8-1.2-.7-.7-.6-1-1.5.7-2.3.9-2.8,1.1-3.3,1.2-3.4,1.2-1.3.4-.9.3c-.4.2-.7.2-1-.2l-.4-.5h0Z"/>
        <path class="st9" d="M1706.5,867.9c-2.3,11.9-10.7,20.8-32.5,23.1-.1.3-.4.6-1,1-1.1.8-2.4,1.6-3.7,2.3l-3.2,1.7-1.8.9c-.6.3-1.2.6-1.9.8-.8.4-1.7.3-2.6-.3-.2-.1-.5-.3-.7-.5-.3-.2-.5-.4-.7-.7v.7c.1,0,.3,1.3.3,1.3l.2,1.4.3,1.9.5,3.1.7,4,1,4.4c.2,1.2.9,1.3,2.1.5,1.3-.7,2.6-1.5,4-2.5,1.6-1.1,3-2.2,4.3-3.2l1-.8h0s.1,0,.1,0h.2c0,.1.3.4.3.4.3.3.6.6.8,1l.5.6,1.1,1.6,1.5,2.1,1.9,2.7.7.8,2.2-1,2.4-1.1,2.3-1.1,3.4-1.6,3.9-1.8,3.7-1.7,6,6c1-2.3,1.8-4.5,2.5-6.4l1.3-3.8c.6-1.8,1.2-3.7,1.7-5.8l1.6-6.6,1.1-6.2.6-5.2.3-5.4v-3.8c0,0,0-3.8,0-3.8l-6.5.9h0Z"/>
        <path class="st41" d="M1672.9,890.8c-15.6-1.2-29.7-3.5-39.9-8.8l.6,1.3,1.3,1.9,2.1,2,2.1,1.7,2.9,1.8,2.5,1.4,1.4.7,2.5.7,3,.7,3.4.5,2.3.2h.7s.6.4.6.4l1.1.7,1.1.5h.3c0,.1.4.3.4.3h.3s.4,0,.4,0l.7-.2,1.2-.4c.9-.4,1.8-.8,2.6-1.2l1.7-.9c.8-.5,1.6-1,2.3-1.5.4-.3.9-.6,1.4-1l.5-.4.2-.2h0c0-.2,0-.2,0-.2h0Z"/>
        <path class="st41" d="M1630.3,882.7c-2.3,7.2-5.5,13.1-10.2,16.4h1.2c0-.1,1.1-.4,1.1-.4l.7-.2.6-.2h.4c0-.1.6-.3.6-.3l.8-.3.7-.3.8-.4.7-.5.7-.5.9-.9.4-.5.5-.7.4-.7.4-.7.4-.9.3-1,.2-.8.2-1v-.9c0,0,0-1,0-1v-.8c0,0-.2-1-.2-1v-.6c-.1,0-.3-.8-.3-.8l-1.2-.9h0Z"/>
        <path class="st46" d="M1634.4,927.6c3.3-6.1,9.2-5.9,16.5-2.2v-.4c-.5-.3-1.2-.7-1.9-1-.6-.3-1.3-.6-2.1-.9-.6-.2-1.2-.5-1.9-.7-.5-.1-1-.2-1.4-.3-.5,0-1-.2-1.4-.2-.4,0-.8,0-1.2,0-.7,0-1.3,0-1.9.3-.3,0-.6.2-.9.3-.3.1-.6.3-1,.5-.3.2-.7.4-1,.7-.3.3-.6.5-.8.8-.2.3-.4.5-.6.8-.2.3-.3.6-.4.9-.1.5-.2,1,0,1.5h0Z"/>
        <path class="st46" d="M1623.2,871.4c-5.9,1.9-5.3,11.8-5.5,12.2v-3.2c0,0-.1-2.5-.1-2.5v-2.9c0,0,.2-1,.2-1l.6-1.3.6-1,.7-.8.6-.5,1.1-.6,1-.3,1.2-.2h5.3c0-.1,3.4-.2,3.4-.2l5.5-.2h3.7c0-.1,1.8-.2,1.8-.2l5.1-.2h4.2c0-.1,3.2-.2,3.2-.2h2.7c0,0,2.9-.2,2.9-.2l.8.7s-32.8.6-39.2,2.7h0Z"/>
        <path class="st46" d="M1623.2,868.1c.2-1.2.5-2.4.8-3.1.3-1,1.1-2,2-3,1.2-1.2,2.5-1.8,4-2h5l7.3-.2,5-.3,6-.2-.9-.6-.8-.5-.7-.3h-2c0,0-4.6.3-4.6.3l-5,.2-7.3.3h-2.9c0,.1-1,.2-1,.2l-.9.2-1,.4-1,.7c-.3.3-.7.7-1,1.2l-.4.8-.3.8-.2.8v4.2h0Z"/>
        <path class="st46" d="M1640,835.8c-.9-28.3,14.8-44.6,47.5-48.7-17.8-.2-34.2,4.6-46,23.5-1.9,9.2-2.7,17.8-1.5,25.3h0Z"/>
        <path class="st41" d="M1669.5,865.3c40.4-1.8,67.5-11.4,64.7-38.5l7.8,3.1c-2.5,16.2-9.9,23.8-17.9,29.9-9.3,5.9-19.8,8-31.1,8.2-7.4.4-15.3-.8-23.5-2.7Z"/>
        <path class="st41" d="M1720.2,812.5c1.3,3.5,4.1,5.9,7.5,7.9-1.3-2.3-2.4-4.3-2.7-5.4-1.4-.5-3.1-1.4-4.8-2.5h0Z"/>
        <path class="st41" d="M1707.7,790.9c-1,6,2.2,12,8,18.1-2.1-2.2-4-4.7-4.9-8.8-.6-2.2-.7-5-.3-8.3l-2.7-1h0Z"/>
        <path class="st49" d="M1737.5,814.3c6,2,6.8,7.3,3.8,14.8-2-.7-4-1.5-5.8-2.6-1.7-.9-3.2-1.9-4.5-3.2-1.4-1.4-2.5-2.8-3.3-4.2-.9-1.8-1.5-3.6-1.5-5.3l-1.2-.4-2.2-1-1.9-1c-3.9-2.5-6.3-5.8-8.1-9.4,2.8,2.9,6.4,4.9,11.2,5.4l-.6,1.1v.2h.2s.3,0,.3,0h.2s.2-.3.2-.3l.8-1.4h0c.3,5.7,4.2,7.9,11.6,6.7l-1.5,2.8-.3.5h1l.8-1.3.3-.5.2-.3.3-.6h0Z"/>
        <path class="st23" d="M1724.7,805.9c2.7-10.7-1.8-15.3-13.6-13.9,5.7-1.2,10.5-.8,14,2.3,2.7,3.4,1.6,7.4-.4,11.6h0Z"/>
        <path class="st23" d="M1727.8,799.1c5.9,1.9,9,6.3,9.7,12.8.7-2.8.5-5.7-1.7-8.5-1.7-2.2-4.8-4.4-8-5.2v.9c0,0,0,0,0,0Z"/>
      </g>
    </g>
  </g>
  <g id="Layer_2">
    <g>
      <rect class="st50" x="319.3" y="135.1" width="1272.3" height="691.9"/>
      <g class="st7">
        <text class="st6" transform="translate(881.1 243.7) scale(.4 1)"><tspan class="st29"><tspan x="0" y="0">Regler:</tspan></tspan><tspan class="st27"><tspan x="-207" y="88.7">Du har 20 sekunder!</tspan></tspan><tspan class="st27"><tspan x="-841.9" y="177.5">Du skal fange zombierne inden de når ned i bussen!</tspan></tspan><tspan class="st27"><tspan x="-435.1" y="266.2">Få 10 point inden tiden er gået!</tspan></tspan><tspan class="st27"><tspan x="-1063.5" y="354.9">Du mister liv hvis zombierne falder ned i bussen, du har tre liv!</tspan></tspan><tspan class="st27"><tspan x="-607.6" y="443.6">Du mister point hvis du fanger en mand!</tspan></tspan></text>
      </g>
      <text class="st11" transform="translate(826 752.9)"><tspan x="0" y="0">ER DU KLAR?!</tspan><tspan x="-367" y="43.2">KLIK PÅ START OG BEGYND REDNINGSAKTIONEN!</tspan></text>
    </g>
  </g>
</svg>