<?xml version="1.0" encoding="UTF-8"?>
<svg id="Layer_1" xmlns="http://www.w3.org/2000/svg" version="1.1" viewBox="0 0 596.6 654.4">
  <!-- Generator: Adobe Illustrator 29.0.0, SVG Export Plug-In . SVG Version: 2.1.0 Build 186)  -->
  <defs>
    <style>
      .st0 {
        fill: #440613;
      }

      .st1 {
        fill: #feff8c;
      }

      .st2 {
        fill: #feffd1;
      }

      .st3 {
        fill: #3a7c37;
      }

      .st4 {
        fill: #f4c1c9;
      }

      .st5 {
        fill: #000200;
      }

      .st6 {
        fill: #f3aeb6;
      }

      .st7 {
        fill: #3d8739;
      }

      .st8 {
        fill: #4b9947;
      }

      .st9 {
        fill: #dd9ea7;
      }

      .st10 {
        fill: #42933e;
      }
    </style>
  </defs>
  <g>
    <rect x="268.6" y="24.4" width="2.7" height="134.3"/>
    <rect x="241.8" y="122.1" width="2.7" height="32.6"/>
    <rect x="241.8" width="2.7" height="97.7"/>
    <rect x="214.9" y="73.3" width="2.7" height="97.7"/>
  </g>
  <g>
    <rect x="311.7" y="64.9" width="3.5" height="97.3"/>
    <rect x="346.2" y="135.6" width="3.5" height="23.6"/>
    <rect x="346.2" y="47.2" width="3.5" height="70.8"/>
    <rect x="380.8" y="100.2" width="3.5" height="70.8"/>
  </g>
  <path class="st10" d="M81.8,333.6c-40.4,227,54.1,299.7,194.3,320,158.6,9.8,244.8-63.2,265.2-211.6-38.4-10.4-64.1-38.8-77.7-83.4-45.6-23.8-73.7-63.9-66.5-128.7-137.7-61.4-258.6-14.6-315.3,103.7h0,0Z"/>
  <path class="st10" d="M509.3,553.2c38.7,13.7,81.8-5.4,86.6-24.9,4.8-19.5-18.3-58.8-51-73.6-5.5,23-14.2,47.5-24.6,72.8-3.5,8.5-7.2,17.1-11.1,25.7h0s0,0,0,0Z"/>
  <path class="st3" d="M541.3,469.8c13.3,19.8,12.7,39.9,0,60.1-7.7,3.8-14.9,3.4-22,0l22-60.1Z"/>
  <path class="st3" d="M385.4,488.4"/>
  <path class="st3" d="M388.8,486.5"/>
  <path class="st10" d="M76.4,333.4C36.1,334.6-.3,368.5,0,388.9c.3,20.4,32.1,49.4,66.8,51.5-.4-24,1.8-50.5,5.4-78.4,1.2-9.4,2.6-18.9,4.1-28.6h0,0Z"/>
  <path class="st3" d="M66.6,424.6c-17.6-14-22-33.3-14.9-57.3,6.4-6.4,13.4-8.7,20.9-8l-6,65.3Z"/>
  <ellipse class="st1" cx="212.1" cy="394.7" rx="50.3" ry="58.4"/>
  <ellipse class="st1" cx="385.9" cy="439.2" rx="50.3" ry="58.4"/>
  <ellipse cx="209.8" cy="394.7" rx="16" ry="19.5"/>
  <ellipse cx="383.6" cy="444.8" rx="16" ry="19.5"/>
  <path class="st0" d="M191.6,489.2l160,27.8c18.8,5.9,29.4,22.3,31.4,50,2.8,21.5-10.5,35.8-36.3,44.5l-173.8-23.6c-21.7-9.8-35.1-26.2-31.3-56.5,6.7-27.4,22.8-42.2,50-42.2"/>
  <polygon class="st2" points="222.6 494.6 221.3 530.9 253.3 536.5 253.3 500 222.6 494.6"/>
  <polygon class="st2" points="301.7 508.4 294.4 558.7 326.4 564.3 331.1 513.5 301.7 508.4"/>
  <polygon class="st2" points="233.7 596.2 235 564.3 253.3 571.2 253.3 598.8 233.7 596.2"/>
  <path class="st2" d="M243.5,581.6"/>
  <path class="st6" d="M538,436.6c-17-7.4-33.9-16.9-47.2-32.1-12.2-13.9-21-32.6-22-53.1,0,0-1.5,0-2.8,0,1-.1,2.1-.4,3,0-32.9-11.4-58.7-44-66.5-84.5-2.3-11.8-3-23.9-2.2-36,0,0-.8,0-1.7,0h0c10.6-4.1,21.2-3.4,32-1.9,8.8,1.2,18.4,2.1,26.3,7.5,14.8,10.1,17.1,33.7,12.6,51.8-3.1,12.6-8.9,23.9-14.5,35,.4-.8,4.1.9,4.6,0,8.9-17.4,18.6-37.5,16.4-58.3,16.8,7,33.2,18.6,41.5,38.5,4.3,10.1,5.9,21.5,4.1,32.8-2,12.1-7.2,22.9-12.3,33.4.4-.8,4.2.9,4.6,0,2.3-4.9,4.7-9.8,6.8-14.9,5.1,2.5,10.1,5.3,14.3,9.5,5.6,5.5,8.5,12.9,9.6,21.4,2.3,17.3-.4,35.4-6.6,51.1h0c0,0,0,0,0,0Z"/>
  <path class="st5" d="M315.5,250.9c0-5.6,0-11.3-.2-16.9,0-.2-9.1,0-9.1,0,.2,5.1.2,10.1.2,15.2-3.8-.2-7.7-.1-11.5,0-6.8.1-13.7.6-20.5,1.3.1-8.3.2-16.7.3-25.1,0,0-9.1-.1-9.1,0-.1,8.7-.2,17.4-.3,26.1-2.4.3-4.8.6-7.1,1-11.2,1.8-22.4,4.6-33.2,8.7-1.6-7.1-3.1-14.2-4.7-21.3-.2-1-9,.9-9.1,0,1.8,8.3,3.6,16.6,5.5,24.9-11.6,5.4-22.6,12.6-32.4,22.5,1.8-1.8,7.3,1.9,9.1,0,7.4-7.5,15.5-13.5,24.1-18.3,2,9.4,4.1,18.7,6.2,28,.2,1,9-.9,9.1,0-2.4-10.8-4.7-21.5-7.1-32.2,8.2-3.8,16.7-6.8,25.3-8.9,4.7-1.2,9.5-2.1,14.2-3-.1,10.3-.3,20.5-.4,30.8,0,0,9.1.1,9.1,0,.1-10.7.3-21.4.4-32.2,2.8-.4,5.6-.7,8.4-1,7.9-.8,16-2,23.5.3,0,13.8-.7,27.6-1.8,41.4,0-.3,9.1.5,9.1,0,1-12.1,1.6-24.3,1.8-36.5,2.2,1.3,6.9-1.8,8.8-.1-2.7-2.3-5.7-3.8-8.8-4.8h0c0,0,0,0,0,0Z"/>
  <path class="st8" d="M75.1,474.1c-4.2-157.4,67.7-248.1,217.2-270.9-81.6-.9-156.1,25.5-210.5,130.4-8.8,50.9-12.5,98.7-6.7,140.5h0Z"/>
  <path class="st7" d="M209.8,638.5c184.9-10,308.6-63.5,295.9-213.8l35.6,17.4c-11.6,89.8-45.1,132.5-82,166.1-42.4,32.6-90.6,44.7-142.1,45.5-33.7,2.3-70-4.5-107.4-15.2h0Z"/>
  <path class="st7" d="M441.7,344.8c6,19.5,18.8,32.8,34.2,43.8-5.8-12.6-10.8-23.9-12.3-30-6.5-2.8-14.1-8-21.9-13.8h0s0,0,0,0Z"/>
  <path class="st7" d="M384.6,224.6c-4.4,33.5,9.9,66.9,36.4,100.4-9.6-12.3-18.4-26.1-22.6-48.7-2.8-12.3-3-28.1-1.4-46.4l-12.4-5.3h0Z"/>
  <path class="st9" d="M520.7,354.6c27.3,11.4,31,40.5,17.3,82-9.3-3.9-18.2-8.6-26.8-14.3-7.6-5.1-14.7-10.8-20.4-17.8-6.3-7.7-11.6-15.5-15-23.6-4.2-10.2-6.8-20.1-7-29.5l-5.7-2.4-10.2-5.3-8.5-5.8c-18-13.9-29-32.2-36.8-52.4,12.9,16.3,29.4,27.2,51.2,30.2l-2.7,6v1.1c0,0,.8,0,.8,0l1.6.4h.9c0,0,.2-.2.2-.2l.7-1.4,3.8-7.6.3-.7c1.2,32.1,19.1,44.5,53,37.9l-6.8,15.5-1.4,2.8h4.6l3.4-7.2,1.2-2.6.8-1.8,1.3-3.2h0s0,0,0,0Z"/>
  <path class="st4" d="M462.4,308.1c12.3-59.2-8.1-85.3-62-77.4,25.9-6.9,48.1-4.6,64.1,13.1,12.2,18.7,7.1,41.1-2,64.3h0Z"/>
  <path class="st4" d="M476.3,270c27,10.7,41.1,35.1,44.2,71.1,3.1-15.8,2.3-31.5-7.9-47.3-7.5-12.1-21.8-24.4-36.6-29.1l.3,5.2h0Z"/>
</svg>